<?xml version="1.0" encoding="utf-8"?>
<!-- Generator: Adobe Illustrator 22.0.1, SVG Export Plug-In . SVG Version: 6.00 Build 0)  -->
<svg version="1.1" xmlns="http://www.w3.org/2000/svg" xmlns:xlink="http://www.w3.org/1999/xlink" x="0px" y="0px"
	 viewBox="0 0 48.9 47.7" style="enable-background:new 0 0 48.9 47.7;" xml:space="preserve">
<style type="text/css">
	.st0{fill:#326CE5;}
	.st1{fill:#20C2EF;stroke:#000000;stroke-width:0.25;stroke-miterlimit:10;}
	.st2{fill:#FFFFFF;stroke:#000000;stroke-width:0.25;stroke-miterlimit:10;}
	.st3{fill:#D6D7D8;stroke:#000000;stroke-width:0.25;stroke-miterlimit:10;}
	.st4{opacity:0.3;fill:#FFFFFF;stroke:#000000;stroke-width:0.25;stroke-miterlimit:10;enable-background:new    ;}
	.st5{fill:#B2B3B6;stroke:#000000;stroke-width:0.25;stroke-miterlimit:10;}
	.st6{opacity:0.12;stroke:#000000;stroke-width:0.25;stroke-miterlimit:10;enable-background:new    ;}
	.st7{opacity:5.000000e-02;fill:#505252;stroke:#000000;stroke-width:0.25;stroke-miterlimit:10;enable-background:new    ;}
</style>
<g id="svg11531" inkscape:version="0.92.2 2405546, 2018-03-11" sodipodi:docname="api.svg" xmlns:cc="http://creativecommons.org/ns#" xmlns:dc="http://purl.org/dc/elements/1.1/" xmlns:inkscape="http://www.inkscape.org/namespaces/inkscape" xmlns:rdf="http://www.w3.org/1999/02/22-rdf-syntax-ns#" xmlns:sodipodi="http://sodipodi.sourceforge.net/DTD/sodipodi-0.dtd" xmlns:svg="http://www.w3.org/2000/svg">
	
		<sodipodi:namedview  bordercolor="#666666" borderopacity="1.0" fit-margin-bottom="0" fit-margin-left="0" fit-margin-right="0" fit-margin-top="0" id="base" inkscape:current-layer="layer1" inkscape:cx="-6.6829719" inkscape:cy="-49.530271" inkscape:document-units="mm" inkscape:pageopacity="0.0" inkscape:pageshadow="2" inkscape:window-height="1556" inkscape:window-maximized="1" inkscape:window-width="2560" inkscape:window-x="0" inkscape:window-y="0" inkscape:zoom="2.8" pagecolor="#ffffff" showgrid="false">
		</sodipodi:namedview>
	<path id="path2062" inkscape:connector-curvature="0" class="st0" d="M0,30.7L4.8,9.5L24.5,0l19.6,9.5l4.8,21.2l-13.6,17H13.6
		L0,30.7z"/>
</g>
<g id="Calque_2">
	<polyline id="polygon8_2_" class="st1" points="25.1,7.6 40.1,14.9 40.1,33.2 25.1,41.6 	"/>
	<polyline id="polygon8" class="st1" points="25.1,41.6 10.1,33.2 10.1,14.9 25.1,7.6 	"/>
	<polyline id="polygon10" class="st2" points="25.1,41.6 40.1,33.2 40.1,14.9 25.1,22.8 25.1,41.6 	"/>
	<polyline id="polygon12" class="st3" points="25.1,7.6 10.1,14.9 25.1,22.8 40.1,14.9 25.1,7.6 	"/>
	<polyline id="polygon14" class="st4" points="25.1,8 39.3,14.9 38.7,15.2 25.1,8.6 11.5,15.2 10.9,14.9 25.1,8 	"/>
	<polygon id="polygon16" class="st4" points="25.4,23.7 25.4,23 39.8,15.5 39.8,16.1 	"/>
	<polyline id="polygon18" class="st2" points="25.1,41.6 10.1,33.2 10.1,14.9 25.1,22.8 25.1,41.6 	"/>
	<polygon id="polygon20" class="st5" points="37.4,19.1 35.6,20.1 35.6,33.4 37.4,32.4 	"/>
	<polygon id="polygon22" class="st5" points="33.8,21 32.1,22 32.1,35.3 33.8,34.3 	"/>
	<polygon id="polygon24" class="st5" points="30.3,23.1 28.5,24.1 28.5,37.4 30.3,36.4 	"/>
	<polygon id="polygon26" class="st6" points="36.8,32.6 36.8,20.2 36.8,20.2 35.8,20.7 35.8,20.2 37.2,19.4 37.2,32.3 	"/>
	<polygon id="polygon28" class="st6" points="33.2,34.5 33.2,22.2 33.2,22.2 32.2,22.6 32.2,22.1 33.7,21.3 33.7,34.2 	"/>
	<polygon id="polygon30" class="st6" points="29.6,36.6 29.6,24.3 29.6,24.3 28.7,24.7 28.7,24.2 30.1,23.4 30.1,36.3 	"/>
	<polygon id="polygon32" class="st7" points="24.8,23.7 13.1,34.5 10.4,33 10.4,15.5 24.8,23.1 	"/>
</g>
</svg>
