<?xml version="1.0" encoding="utf-8"?>
<!-- Generator: Adobe Illustrator 22.0.1, SVG Export Plug-In . SVG Version: 6.00 Build 0)  -->
<svg version="1.1"
	 id="svg3954" inkscape:version="0.92.2 2405546, 2018-03-11" sodipodi:docname="hpa.svg" xmlns:cc="http://creativecommons.org/ns#" xmlns:dc="http://purl.org/dc/elements/1.1/" xmlns:inkscape="http://www.inkscape.org/namespaces/inkscape" xmlns:rdf="http://www.w3.org/1999/02/22-rdf-syntax-ns#" xmlns:sodipodi="http://sodipodi.sourceforge.net/DTD/sodipodi-0.dtd" xmlns:svg="http://www.w3.org/2000/svg"
	 xmlns="http://www.w3.org/2000/svg" xmlns:xlink="http://www.w3.org/1999/xlink" x="0px" y="0px" viewBox="0 0 48.9 47.7"
	 style="enable-background:new 0 0 48.9 47.7;" xml:space="preserve">
<style type="text/css">
	.st0{fill:#326CE5;}
	.st1{fill:#EEEEEE;}
	.st2{font-family:'ArialMT';}
	.st3{font-size:8px;}
</style>
<sodipodi:namedview  bordercolor="#666666" borderopacity="1.0" fit-margin-bottom="0" fit-margin-left="0" fit-margin-right="0" fit-margin-top="0" id="base" inkscape:current-layer="layer1" inkscape:cx="17.93523" inkscape:cy="26.676784" inkscape:document-units="mm" inkscape:pageopacity="0.0" inkscape:pageshadow="2" inkscape:window-height="1556" inkscape:window-maximized="1" inkscape:window-width="2560" inkscape:window-x="0" inkscape:window-y="0" inkscape:zoom="11.2" pagecolor="#ffffff" showgrid="false">
	</sodipodi:namedview>
<path id="path7168" inkscape:connector-curvature="0" class="st0" d="M0,30.7L4.8,9.5L24.5,0l19.6,9.5l4.8,21.2l-13.6,17H13.6
	L0,30.7z"/>
<text transform="matrix(1 0 0 1 17.7119 44.4453)" class="st1 st2 st3">hpa</text>
<path id="path7034" inkscape:connector-curvature="0" sodipodi:nodetypes="ccccccccccccccccccc" class="st1" d="M2.8,25.1l6.4-6.4
	v3.2h2.4v-9.6h25.9v9.6h2.4v-3.2l6.4,6.4l-6.4,6.4v-3.2h-2.4v9.6H11.5v-9.6H9.2v3.2L2.8,25.1z"/>
<path id="path7157" inkscape:connector-curvature="0" class="st0" d="M14.5,18.2l9.9-2.9l9.9,2.9l-9.9,2.9L14.5,18.2z"/>
<path id="path7159" inkscape:connector-curvature="0" class="st0" d="M14.5,19.3v10.6l9.3,5.1l0-12.9L14.5,19.3z"/>
<path id="path7161" inkscape:connector-curvature="0" class="st0" d="M34.4,19.3v10.6L25.2,35l0-12.9L34.4,19.3z"/>
</svg>
