<?xml version="1.0" encoding="utf-8"?>
<!-- Generator: Adobe Illustrator 22.0.1, SVG Export Plug-In . SVG Version: 6.00 Build 0)  -->
<svg version="1.1"
	 id="svg13179" inkscape:version="0.92.2 2405546, 2018-03-11" sodipodi:docname="sc.svg" xmlns:cc="http://creativecommons.org/ns#" xmlns:dc="http://purl.org/dc/elements/1.1/" xmlns:inkscape="http://www.inkscape.org/namespaces/inkscape" xmlns:rdf="http://www.w3.org/1999/02/22-rdf-syntax-ns#" xmlns:sodipodi="http://sodipodi.sourceforge.net/DTD/sodipodi-0.dtd" xmlns:svg="http://www.w3.org/2000/svg"
	 xmlns="http://www.w3.org/2000/svg" xmlns:xlink="http://www.w3.org/1999/xlink" x="0px" y="0px" viewBox="0 0 48.9 47.7"
	 style="enable-background:new 0 0 48.9 47.7;" xml:space="preserve">
<style type="text/css">
	.st0{fill:#326CE5;}
	.st1{fill-opacity:0;}
	.st2{fill:#EEEEEE;}
	.st3{font-family:'ArialMT';}
	.st4{font-size:8px;}
	.st5{fill:none;stroke:#EEEEEE;stroke-width:0.415;stroke-linejoin:round;stroke-miterlimit:10;stroke-dasharray:1.66,0.415;}
	.st6{fill:#EEEEEE;stroke:#EEEEEE;stroke-width:0.2076;stroke-linecap:square;stroke-miterlimit:10;}
	.st7{fill:none;stroke:#EEEEEE;stroke-width:0.415;stroke-linejoin:round;stroke-miterlimit:10;}
	.st8{fill:none;stroke:#EEEEEE;stroke-width:0.4151;stroke-linejoin:round;stroke-miterlimit:10;stroke-dasharray:1.6606,0.4151;}
</style>
<sodipodi:namedview  bordercolor="#666666" borderopacity="1.0" fit-margin-bottom="0" fit-margin-left="0" fit-margin-right="0" fit-margin-top="0" id="base" inkscape:current-layer="layer1" inkscape:cx="-60.07893" inkscape:cy="-8.4616187" inkscape:document-units="mm" inkscape:pageopacity="0.0" inkscape:pageshadow="2" inkscape:window-height="1556" inkscape:window-maximized="1" inkscape:window-width="2560" inkscape:window-x="0" inkscape:window-y="0" inkscape:zoom="5.6" pagecolor="#ffffff" showgrid="false">
	</sodipodi:namedview>
<path id="path6461" inkscape:connector-curvature="0" class="st0" d="M0,30.7L4.8,9.5L24.5,0l19.6,9.5l4.8,21.2l-13.6,17H13.6
	L0,30.7z"/>
<path id="path6467" inkscape:connector-curvature="0" class="st1" d="M9.2,35.5h30.5v12.2H9.2V35.5z"/>
<text transform="matrix(1 0 0 1 20.3857 44.4453)" class="st2 st3 st4">sc</text>
<path id="path6473" inkscape:connector-curvature="0" class="st0" d="M11.2,27.7L11.2,27.7c0,1.1,6,1.9,13.3,1.9
	c7.4,0,13.3-0.9,13.3-1.9v5.2c0,1.1-6,1.9-13.3,1.9c-7.4,0-13.3-0.9-13.3-1.9L11.2,27.7z"/>
<path id="path6475" inkscape:connector-curvature="0" class="st0" d="M11.2,27.7L11.2,27.7c0-1.1,6-1.9,13.3-1.9
	c7.4,0,13.3,0.9,13.3,1.9l0,0c0,1.1-6,1.9-13.3,1.9C17.1,29.6,11.2,28.7,11.2,27.7z"/>
<path id="path6477" inkscape:connector-curvature="0" class="st5" d="M37.8,28.7L37.8,28.7c0,1.1-6,1.9-13.3,1.9s-13.3-0.9-13.3-1.9
	l0,0c0-1.1,6-1.9,13.3-1.9S37.8,27.6,37.8,28.7v5.2c0,1.1-6,1.9-13.3,1.9S11.2,35,11.2,33.9v-5.2"/>
<path id="path6479" inkscape:connector-curvature="0" class="st6" d="M11.2,21.1L11.2,21.1c0,1.1,6,1.9,13.3,1.9
	c7.4,0,13.3-0.9,13.3-1.9v5.2c0,1.1-6,1.9-13.3,1.9c-7.4,0-13.3-0.9-13.3-1.9L11.2,21.1z"/>
<path id="path6481" inkscape:connector-curvature="0" class="st0" d="M11.2,21.1L11.2,21.1c0-1.1,6-1.9,13.3-1.9
	c7.4,0,13.3,0.9,13.3,1.9l0,0c0,1.1-6,1.9-13.3,1.9C17.1,23.1,11.2,22.2,11.2,21.1z"/>
<path id="path6483" inkscape:connector-curvature="0" class="st7" d="M37.8,21.1L37.8,21.1c0,1.1-6,1.9-13.3,1.9s-13.3-0.9-13.3-1.9
	l0,0c0-1.1,6-1.9,13.3-1.9S37.8,20.1,37.8,21.1v5.2c0,1.1-6,1.9-13.3,1.9s-13.3-0.9-13.3-1.9v-5.2"/>
<path id="path6485" inkscape:connector-curvature="0" class="st0" d="M11.2,13.9L11.2,13.9c0,1.1,6,1.9,13.3,1.9
	c7.4,0,13.3-0.9,13.3-1.9v5.2c0,1.1-6,1.9-13.3,1.9c-7.4,0-13.3-0.9-13.3-1.9L11.2,13.9z"/>
<path id="path6487" inkscape:connector-curvature="0" class="st0" d="M11.2,13.9L11.2,13.9c0-1.1,6-1.9,13.3-1.9
	c7.4,0,13.3,0.9,13.3,1.9l0,0c0,1.1-6,1.9-13.3,1.9C17.1,15.8,11.2,15,11.2,13.9z"/>
<path id="path6489" inkscape:connector-curvature="0" class="st8" d="M37.8,13.9L37.8,13.9c0,1.1-6,1.9-13.3,1.9
	c-7.4,0-13.3-0.9-13.3-1.9l0,0c0-1.1,6-1.9,13.3-1.9C31.8,12,37.8,12.8,37.8,13.9v5.2c0,1.1-6,1.9-13.3,1.9
	c-7.4,0-13.3-0.9-13.3-1.9v-5.2"/>
</svg>
