<?xml version="1.0" encoding="utf-8"?>
<!-- Generator: Adobe Illustrator 22.0.1, SVG Export Plug-In . SVG Version: 6.00 Build 0)  -->
<svg version="1.1"
	 id="svg10899" inkscape:version="0.92.2 2405546, 2018-03-11" sodipodi:docname="cronjob.svg" xmlns:cc="http://creativecommons.org/ns#" xmlns:dc="http://purl.org/dc/elements/1.1/" xmlns:inkscape="http://www.inkscape.org/namespaces/inkscape" xmlns:rdf="http://www.w3.org/1999/02/22-rdf-syntax-ns#" xmlns:sodipodi="http://sodipodi.sourceforge.net/DTD/sodipodi-0.dtd" xmlns:svg="http://www.w3.org/2000/svg"
	 xmlns="http://www.w3.org/2000/svg" xmlns:xlink="http://www.w3.org/1999/xlink" x="0px" y="0px" viewBox="0 0 48.9 47.7"
	 style="enable-background:new 0 0 48.9 47.7;" xml:space="preserve">
<style type="text/css">
	.st0{fill:#FFFFFF;}
	.st1{fill:#326CE5;}
	.st2{fill:#EEEEEE;}
	.st3{font-family:'ArialMT';}
	.st4{font-size:8px;}
	.st5{clip-path:url(#SVGID_3_);}
	.st6{clip-path:url(#SVGID_4_);fill:#EEEEEE;}
</style>
<sodipodi:namedview  bordercolor="#666666" borderopacity="1.0" fit-margin-bottom="0" fit-margin-left="0" fit-margin-right="0" fit-margin-top="0" id="base" inkscape:current-layer="layer1" inkscape:cx="-16.158474" inkscape:cy="13.076699" inkscape:document-units="mm" inkscape:pageopacity="0.0" inkscape:pageshadow="2" inkscape:window-height="1556" inkscape:window-maximized="1" inkscape:window-width="2560" inkscape:window-x="0" inkscape:window-y="0" inkscape:zoom="11.2" pagecolor="#ffffff" showgrid="false">
	</sodipodi:namedview>
<path id="path9047" pointer-events="none" inkscape:connector-curvature="0" class="st0" d="M23.8,12.8c-2.3,0-4.2,1.9-4.2,4.2v1.8
	H28V17C28,14.7,26.1,12.8,23.8,12.8z"/>
<ellipse id="ellipse9049" pointer-events="none" class="st0" cx="23.3" cy="26.5" rx="3" ry="3"/>
<path id="path9051" pointer-events="none" inkscape:connector-curvature="0" class="st0" d="M23.7,2.4L5.3,10.6v12.1
	C5.3,34,13.2,44.5,23.7,47C34.3,44.5,42.1,34,42.1,22.7V10.6L23.7,2.4z M33.5,35.1H14V18.7h2.8V17c0-3.9,3.2-7,7-7c3.9,0,7,3.1,7,7
	v1.8h2.6L33.5,35.1z"/>
<path id="path9053" inkscape:connector-curvature="0" class="st1" d="M0,30.7L4.8,9.5L24.5,0l19.6,9.5l4.8,21.2l-13.6,17H13.6
	L0,30.7z"/>
<text transform="matrix(1 0 0 1 11.2666 44.4453)" class="st2 st3 st4">cronjob</text>
<path id="rect9061" inkscape:connector-curvature="0" sodipodi:nodetypes="cccccccsccccccccccccccccccccccscc" class="st2" d="
	M30.7,9v6.1H37V9H30.7z M30.7,17.8v1.5c0.7-0.2,1.5-0.3,2.3-0.3c1.4,0,2.7,0.3,4,0.8v-2.1H30.7z M12.9,17.9v6.1h6.2v-6.1H12.9z
	 M21.8,17.9v6.1h2.6c0.9-1.5,2.1-2.7,3.6-3.6v-2.5H21.8z M12.9,26.7v6.1h6.2v-6.1H12.9z M21.8,26.7v6.1h2c-0.5-1.2-0.7-2.4-0.7-3.8
	c0-0.8,0.1-1.6,0.3-2.3H21.8z"/>
<g>
	<defs>
		<polygon id="SVGID_1_" points="2.1,1.9 4.9,1.9 2.1,4.7 		"/>
	</defs>
	<defs>
		<polygon id="SVGID_2_" points="-3.6,-3.8 -6.4,-3.8 -3.6,-6.6 		"/>
	</defs>
	<clipPath id="SVGID_3_">
		<use xlink:href="#SVGID_1_"  style="overflow:visible;"/>
	</clipPath>
	<clipPath id="SVGID_4_" class="st5">
		<use xlink:href="#SVGID_2_"  style="overflow:visible;"/>
	</clipPath>
	<path id="path9087" inkscape:connector-curvature="0" class="st6" d="M33.4,20.3c-5,0-9.1,4.1-9.1,9.1s4.1,9.1,9.1,9.1
		c5,0,9.1-4.1,9.1-9.1S38.4,20.3,33.4,20.3z M37.2,33.2l-4.7-2.9v-5.4h1.4v4.7l4.1,2.4L37.2,33.2z"/>
</g>
</svg>
