<?xml version="1.0" encoding="utf-8"?>
<!-- Generator: Adobe Illustrator 22.0.1, SVG Export Plug-In . SVG Version: 6.00 Build 0)  -->
<svg version="1.1"
	 id="svg6469" inkscape:version="0.92.2 2405546, 2018-03-11" sodipodi:docname="role.svg" xmlns:cc="http://creativecommons.org/ns#" xmlns:dc="http://purl.org/dc/elements/1.1/" xmlns:inkscape="http://www.inkscape.org/namespaces/inkscape" xmlns:rdf="http://www.w3.org/1999/02/22-rdf-syntax-ns#" xmlns:sodipodi="http://sodipodi.sourceforge.net/DTD/sodipodi-0.dtd" xmlns:svg="http://www.w3.org/2000/svg"
	 xmlns="http://www.w3.org/2000/svg" xmlns:xlink="http://www.w3.org/1999/xlink" x="0px" y="0px" viewBox="0 0 48.9 47.7"
	 style="enable-background:new 0 0 48.9 47.7;" xml:space="preserve">
<style type="text/css">
	.st0{fill:#FFFFFF;}
	.st1{fill:#326CE5;}
	.st2{fill:#EEEEEE;}
	.st3{font-family:'ArialMT';}
	.st4{font-size:8px;}
	
		.st5{fill:none;stroke:#EEEEEE;stroke-width:0.4;stroke-linejoin:round;stroke-miterlimit:10;stroke-dasharray:0.8,0.4;stroke-dashoffset:4;}
</style>
<sodipodi:namedview  bordercolor="#666666" borderopacity="1.0" fit-margin-bottom="0" fit-margin-left="0" fit-margin-right="0" fit-margin-top="0" id="base" inkscape:current-layer="layer1" inkscape:cx="32.015835" inkscape:cy="-3.4624117" inkscape:document-units="mm" inkscape:pageopacity="0.0" inkscape:pageshadow="2" inkscape:window-height="1556" inkscape:window-maximized="1" inkscape:window-width="2560" inkscape:window-x="0" inkscape:window-y="0" inkscape:zoom="7.9195959" pagecolor="#ffffff" showgrid="false">
	</sodipodi:namedview>
<path id="path8462" pointer-events="none" inkscape:connector-curvature="0" class="st0" d="M23.8,12.8c-2.3,0-4.2,1.9-4.2,4.2v1.8
	H28V17C28,14.7,26.1,12.8,23.8,12.8z"/>
<ellipse id="ellipse8464" pointer-events="none" class="st0" cx="23.4" cy="26.5" rx="3" ry="3"/>
<path id="path8466" pointer-events="none" inkscape:connector-curvature="0" class="st0" d="M23.7,2.4L5.3,10.6v12.1
	C5.3,34,13.2,44.5,23.7,47C34.3,44.5,42.1,34,42.1,22.7V10.6L23.7,2.4z M33.5,35.1H14V18.7h2.8V17c0-3.9,3.2-7,7-7c3.9,0,7,3.1,7,7
	v1.8h2.6V35.1z"/>
<path id="path8468" inkscape:connector-curvature="0" class="st1" d="M0,30.7L4.8,9.5L24.5,0l19.6,9.5l4.8,21.2l-13.6,17H13.6
	L0,30.7z"/>
<text transform="matrix(1 0 0 1 17.7158 44.4453)" class="st2 st3 st4">role</text>
<path id="path8476" pointer-events="none" inkscape:connector-curvature="0" class="st2" d="M24.5,18.1c-1.1,0-2,0.9-2,2V21h4v-0.9
	C26.5,19,25.6,18.1,24.5,18.1z"/>
<ellipse id="ellipse8478" pointer-events="none" class="st2" cx="24.3" cy="24.7" rx="1.4" ry="1.4"/>
<path id="path8480" pointer-events="none" inkscape:connector-curvature="0" class="st2" d="M24.5,13.2l-8.8,3.9v5.8
	c0,5.4,3.8,10.4,8.8,11.7c5-1.2,8.8-6.3,8.8-11.7v-5.8L24.5,13.2z M29.1,28.8h-9.3V21h1.3v-0.9c0-1.8,1.5-3.3,3.4-3.3
	c1.9,0,3.4,1.5,3.4,3.3V21h1.2V28.8z"/>
<rect id="rect8484" x="10.4" y="11.7" class="st5" width="28.1" height="24.5"/>
</svg>
