<?xml version="1.0" encoding="utf-8"?>
<!-- Generator: Adobe Illustrator 22.0.1, SVG Export Plug-In . SVG Version: 6.00 Build 0)  -->
<svg version="1.1"
	 id="svg12132" inkscape:version="0.92.2 2405546, 2018-03-11" sodipodi:docname="c-m.svg" xmlns:cc="http://creativecommons.org/ns#" xmlns:dc="http://purl.org/dc/elements/1.1/" xmlns:inkscape="http://www.inkscape.org/namespaces/inkscape" xmlns:rdf="http://www.w3.org/1999/02/22-rdf-syntax-ns#" xmlns:sodipodi="http://sodipodi.sourceforge.net/DTD/sodipodi-0.dtd" xmlns:svg="http://www.w3.org/2000/svg"
	 xmlns="http://www.w3.org/2000/svg" xmlns:xlink="http://www.w3.org/1999/xlink" x="0px" y="0px" viewBox="0 0 48.9 47.7"
	 style="enable-background:new 0 0 48.9 47.7;" xml:space="preserve">
<style type="text/css">
	.st0{fill:#326CE5;}
	.st1{fill:#EEEEEE;}
	.st2{font-family:'ArialMT';}
	.st3{font-size:8px;}
</style>
<sodipodi:namedview  bordercolor="#666666" borderopacity="1.0" fit-margin-bottom="0" fit-margin-left="0" fit-margin-right="0" fit-margin-top="0" id="base" inkscape:current-layer="layer1" inkscape:cx="12.027422" inkscape:cy="18.739505" inkscape:document-units="mm" inkscape:pageopacity="0.0" inkscape:pageshadow="2" inkscape:window-height="1556" inkscape:window-maximized="1" inkscape:window-width="2560" inkscape:window-x="0" inkscape:window-y="0" inkscape:zoom="7.9195959" pagecolor="#ffffff" showgrid="false">
	</sodipodi:namedview>
<path id="path2032" inkscape:connector-curvature="0" class="st0" d="M0,30.7L4.8,9.5L24.5,0l19.6,9.5l4.8,21.2l-13.6,17H13.6
	L0,30.7z"/>
<text transform="matrix(1 0 0 1 17.7217 44.4453)" class="st1 st2 st3">c-m</text>
<path id="path2038" inkscape:connector-curvature="0" sodipodi:nodetypes="cccccccccccccscccccsccccccccccccccscscccccccccccccccccccccscccccccccccccc" class="st1" d="
	M24.4,9.9c-0.4,0-11.3,5.4-11.5,5.6c-0.3,0.7-2.8,12.1-2.7,12.4c0.1,0.1,1.9,2.4,4,5l3.8,4.8l6.3,0l6.3,0l4-5l4-5l-1.4-6.1
	c-0.8-3.4-1.5-6.2-1.5-6.3C35.6,15.2,24.6,9.9,24.4,9.9L24.4,9.9z M25.1,15.5c0.5,0,0.6,0.8,1.7,0.9c1.5,0.1,1.3-1.3,2.5-0.3
	c1.1,1-0.3,1,0.1,2.5c0.4,1.4,1.6,0.9,1.1,2.2c-0.6,1.4-1.1,0.1-2.3,0.9c-1.3,0.8-0.3,1.8-1.8,1.7c-1.5-0.1-0.4-1-1.5-1.9
	c-1.1-1-1.8,0.2-2.2-1.2c-0.4-1.4,0.8-0.7,1.4-2.1c0.6-1.4-0.8-1.6,0.5-2.4c0.2-0.1,0.3-0.2,0.4-0.2C24.9,15.6,25,15.5,25.1,15.5
	L25.1,15.5z M26.6,17.2c-0.2,0-0.4,0-0.6,0.1c-1.1,0.3-1.8,1.5-1.4,2.7c0.3,1.1,1.5,1.8,2.7,1.4c1.1-0.3,1.8-1.5,1.4-2.7
	C28.3,17.8,27.5,17.2,26.6,17.2z M18.1,20.9c0.1,0,0.3,0,0.4,0.1c1.4,0.4,0,1.1,0.9,2.2c1,1,1.8-0.3,2.1,1.1c0.3,1.4-1,0.5-1.4,1.9
	c-0.4,1.4,1.1,1.4,0.1,2.4c-1,1-1-0.6-2.4-0.3c-1.4,0.3-0.6,1.7-2,1.3c-1.4-0.4,0-1.1-0.9-2.2c-1-1-1.8,0.3-2.1-1.1
	c-0.3-1.4,1-0.5,1.4-1.9c0.4-1.4-1.1-1.4-0.1-2.4c1-1,1,0.6,2.4,0.3C17.7,21.9,17.3,20.8,18.1,20.9L18.1,20.9z M28.2,22.3
	c0.1,0,0.3,0,0.5,0.1c1.6,0.6-0.5,1.5,0.7,2.7c1.2,1.2,2.1-0.9,2.7,0.6c0.7,1.5-1.4,0.7-1.4,2.4c0,1.7,2.1,0.8,1.5,2.4
	c-0.6,1.6-1.5-0.5-2.7,0.7c-1.2,1.2,0.9,2.1-0.6,2.7c-1.5,0.7-0.7-1.4-2.4-1.4c-1.7,0-0.8,2.1-2.4,1.5c-1.6-0.6,0.5-1.5-0.7-2.7
	c-1.2-1.2-2.1,0.9-2.7-0.6c-0.7-1.5,1.4-0.7,1.4-2.4c0-1.7-2.1-0.8-1.5-2.4c0.6-1.6,1.5,0.5,2.7-0.7c1.2-1.2-0.9-2.1,0.6-2.7
	c1.5-0.7,0.7,1.4,2.4,1.4C27.8,23.9,27.3,22.3,28.2,22.3z M17.2,23.1c-1.2,0-2.1,1-2.1,2.1c0,1.2,1,2.1,2.1,2.1c1.2,0,2.1-1,2.1-2.1
	C19.3,24,18.4,23.1,17.2,23.1z M26.4,25.1c-1.7,0-3.2,1.4-3.2,3.2c0,1.7,1.4,3.2,3.2,3.2c1.7,0,3.2-1.4,3.2-3.2
	C29.6,26.5,28.2,25.1,26.4,25.1z"/>
</svg>
