<?xml version="1.0" encoding="utf-8"?>
<!-- Generator: Adobe Illustrator 22.0.1, SVG Export Plug-In . SVG Version: 6.00 Build 0)  -->
<svg version="1.1"
	 id="svg7107" inkscape:version="0.92.2 2405546, 2018-03-11" sodipodi:docname="user.svg" xmlns:cc="http://creativecommons.org/ns#" xmlns:dc="http://purl.org/dc/elements/1.1/" xmlns:inkscape="http://www.inkscape.org/namespaces/inkscape" xmlns:rdf="http://www.w3.org/1999/02/22-rdf-syntax-ns#" xmlns:sodipodi="http://sodipodi.sourceforge.net/DTD/sodipodi-0.dtd" xmlns:svg="http://www.w3.org/2000/svg"
	 xmlns="http://www.w3.org/2000/svg" xmlns:xlink="http://www.w3.org/1999/xlink" x="0px" y="0px" viewBox="0 0 48.9 47.7"
	 style="enable-background:new 0 0 48.9 47.7;" xml:space="preserve">
<style type="text/css">
	.st0{fill:#326CE5;}
	.st1{fill:#EEEEEE;}
	.st2{font-family:'ArialMT';}
	.st3{font-size:8px;}
</style>
<sodipodi:namedview  bordercolor="#666666" borderopacity="1.0" fit-margin-bottom="0" fit-margin-left="0" fit-margin-right="0" fit-margin-top="0" id="base" inkscape:current-layer="layer1" inkscape:cx="-21.506815" inkscape:cy="-10.244419" inkscape:document-units="mm" inkscape:pageopacity="0.0" inkscape:pageshadow="2" inkscape:window-height="1556" inkscape:window-maximized="1" inkscape:window-width="2560" inkscape:window-x="0" inkscape:window-y="0" inkscape:zoom="7.9195959" pagecolor="#ffffff" showgrid="false">
	</sodipodi:namedview>
<path id="path8347" inkscape:connector-curvature="0" class="st0" d="M0,30.7L4.8,9.5L24.5,0l19.6,9.5l4.8,21.2l-13.6,17H13.6
	L0,30.7z"/>
<text transform="matrix(1 0 0 1 16.6045 44.4453)" class="st1 st2 st3">user</text>
<path id="rect8339" inkscape:connector-curvature="0" class="st1" d="M13.6,11.1c-1.3,0-2.4,1.1-2.4,2.4v20.7c0,1.3,1.1,2.4,2.4,2.4
	h21.8c1.3,0,2.4-1.1,2.4-2.4V13.5c0-1.3-1.1-2.4-2.4-2.4H13.6z M24.5,15.1c2.1,0,3.7,1.7,3.7,3.7c0,2.1-1.7,3.7-3.7,3.7
	c-2.1,0-3.7-1.7-3.7-3.7C20.7,16.8,22.4,15.1,24.5,15.1z M24.5,25.1c2.9,0,8.7,1.5,8.7,4.4v3.1H15.7v-3.1
	C15.7,26.6,21.6,25.1,24.5,25.1z"/>
</svg>
