<?xml version="1.0" encoding="utf-8"?>
<!-- Generator: Adobe Illustrator 22.0.1, SVG Export Plug-In . SVG Version: 6.00 Build 0)  -->
<svg version="1.1"
	 id="svg5198" inkscape:version="0.92.2 2405546, 2018-03-11" sodipodi:docname="pod.svg" xmlns:cc="http://creativecommons.org/ns#" xmlns:dc="http://purl.org/dc/elements/1.1/" xmlns:inkscape="http://www.inkscape.org/namespaces/inkscape" xmlns:rdf="http://www.w3.org/1999/02/22-rdf-syntax-ns#" xmlns:sodipodi="http://sodipodi.sourceforge.net/DTD/sodipodi-0.dtd" xmlns:svg="http://www.w3.org/2000/svg"
	 xmlns="http://www.w3.org/2000/svg" xmlns:xlink="http://www.w3.org/1999/xlink" x="0px" y="0px" viewBox="0 0 48.9 47.7"
	 style="enable-background:new 0 0 48.9 47.7;" xml:space="preserve">
<style type="text/css">
	.st0{fill:#326CE5;}
	.st1{fill:#EEEEEE;}
	.st2{fill-opacity:0;}
</style>
<sodipodi:namedview  bordercolor="#666666" borderopacity="1.0" fit-margin-bottom="0" fit-margin-left="0" fit-margin-right="0" fit-margin-top="0" id="base" inkscape:current-layer="layer1" inkscape:cx="-70.263129" inkscape:cy="9.4361449" inkscape:document-units="mm" inkscape:pageopacity="0.0" inkscape:pageshadow="2" inkscape:window-height="1556" inkscape:window-maximized="1" inkscape:window-width="2560" inkscape:window-x="0" inkscape:window-y="0" inkscape:zoom="5.6" pagecolor="#ffffff" showgrid="false">
	</sodipodi:namedview>
<path id="path824" inkscape:connector-curvature="0" inkscape:export-xdpi="376.57999" inkscape:export-ydpi="376.57999" class="st0" d="
	M0,30.7L4.8,9.5L24.5,0l19.6,9.5l4.8,21.2l-13.6,17H13.6L0,30.7z"/>
<path id="path910" inkscape:connector-curvature="0" inkscape:export-xdpi="376.57999" inkscape:export-ydpi="376.57999" class="st1" d="
	M14.2,17.5l10.3-3l10.3,3l-10.3,3L14.2,17.5z"/>
<path id="path912" inkscape:connector-curvature="0" inkscape:export-xdpi="376.57999" inkscape:export-ydpi="376.57999" class="st1" d="
	M14.2,18.7v10.9l9.6,5.3l0-13.4L14.2,18.7z"/>
<path id="path914" inkscape:connector-curvature="0" inkscape:export-xdpi="376.57999" inkscape:export-ydpi="376.57999" class="st1" d="
	M34.7,18.7v10.9l-9.6,5.3l0-13.4L34.7,18.7z"/>
<path id="path916" inkscape:connector-curvature="0" inkscape:export-xdpi="376.57999" inkscape:export-ydpi="376.57999" class="st2" d="
	M9.2,35.5h30.5v12.2H9.2V35.5z"/>
<path id="path918" inkscape:connector-curvature="0" inkscape:export-xdpi="376.57999" inkscape:export-ydpi="376.57999" class="st1" d="
	M18.3,46v-5.7H19v0.5c0.1-0.2,0.3-0.4,0.5-0.5c0.2-0.1,0.4-0.2,0.7-0.2c0.4,0,0.7,0.1,0.9,0.3c0.3,0.2,0.5,0.4,0.6,0.8
	c0.1,0.3,0.2,0.7,0.2,1.1c0,0.4-0.1,0.8-0.2,1.1c-0.1,0.3-0.4,0.6-0.7,0.8c-0.3,0.2-0.6,0.3-0.9,0.3c-0.2,0-0.4,0-0.6-0.1
	c-0.2-0.1-0.3-0.2-0.5-0.4v2L18.3,46z M19,42.4c0,0.5,0.1,0.9,0.3,1.2c0.2,0.3,0.5,0.4,0.8,0.4c0.3,0,0.6-0.1,0.8-0.4
	c0.2-0.3,0.3-0.7,0.3-1.2c0-0.5-0.1-0.9-0.3-1.2c-0.2-0.3-0.5-0.4-0.8-0.4c-0.3,0-0.6,0.1-0.8,0.4C19.1,41.4,19,41.8,19,42.4z
	 M22.5,42.4c0-0.8,0.2-1.3,0.6-1.7c0.4-0.3,0.8-0.5,1.3-0.5c0.6,0,1,0.2,1.4,0.6c0.4,0.4,0.6,0.9,0.6,1.5c0,0.5-0.1,1-0.2,1.3
	c-0.2,0.3-0.4,0.5-0.7,0.7c-0.3,0.2-0.6,0.2-1,0.2c-0.6,0-1-0.2-1.4-0.6C22.7,43.6,22.5,43.1,22.5,42.4L22.5,42.4z M23.2,42.4
	c0,0.5,0.1,0.9,0.4,1.2c0.2,0.3,0.5,0.4,0.9,0.4c0.4,0,0.6-0.1,0.9-0.4c0.2-0.3,0.4-0.7,0.4-1.2c0-0.5-0.1-0.9-0.4-1.2
	c-0.2-0.3-0.5-0.4-0.9-0.4c-0.3,0-0.6,0.1-0.9,0.4C23.4,41.4,23.2,41.8,23.2,42.4z M29.9,44.4v-0.5c-0.3,0.4-0.6,0.6-1.2,0.6
	c-0.3,0-0.6-0.1-0.9-0.3c-0.3-0.2-0.5-0.4-0.6-0.8C27,43.2,27,42.8,27,42.4c0-0.4,0.1-0.8,0.2-1.1c0.1-0.3,0.3-0.6,0.6-0.8
	c0.3-0.2,0.6-0.3,0.9-0.3c0.2,0,0.5,0.1,0.7,0.2c0.2,0.1,0.4,0.2,0.5,0.4v-2.1h0.7v5.7L29.9,44.4z M27.7,42.4c0,0.5,0.1,0.9,0.3,1.2
	c0.2,0.3,0.5,0.4,0.8,0.4c0.3,0,0.6-0.1,0.8-0.4c0.2-0.3,0.3-0.6,0.3-1.1c0-0.6-0.1-1-0.3-1.3c-0.2-0.3-0.5-0.4-0.8-0.4
	c-0.3,0-0.6,0.1-0.8,0.4C27.8,41.4,27.7,41.8,27.7,42.4z"/>
</svg>
