<?xml version="1.0" encoding="utf-8"?>
<!-- Generator: Adobe Illustrator 22.0.1, SVG Export Plug-In . SVG Version: 6.00 Build 0)  -->
<svg version="1.1"
	 id="svg12733" inkscape:version="0.92.2 2405546, 2018-03-11" sodipodi:docname="c-c-m.svg" xmlns:cc="http://creativecommons.org/ns#" xmlns:dc="http://purl.org/dc/elements/1.1/" xmlns:inkscape="http://www.inkscape.org/namespaces/inkscape" xmlns:rdf="http://www.w3.org/1999/02/22-rdf-syntax-ns#" xmlns:sodipodi="http://sodipodi.sourceforge.net/DTD/sodipodi-0.dtd" xmlns:svg="http://www.w3.org/2000/svg"
	 xmlns="http://www.w3.org/2000/svg" xmlns:xlink="http://www.w3.org/1999/xlink" x="0px" y="0px" viewBox="0 0 48.9 47.7"
	 style="enable-background:new 0 0 48.9 47.7;" xml:space="preserve">
<style type="text/css">
	.st0{fill:#326CE5;}
	.st1{fill:#EEEEEE;}
	.st2{font-family:'ArialMT';}
	.st3{font-size:8px;}
	.st4{fill:#FFFFFF;}
</style>
<sodipodi:namedview  bordercolor="#666666" borderopacity="1.0" fit-margin-bottom="0" fit-margin-left="0" fit-margin-right="0" fit-margin-top="0" id="base" inkscape:current-layer="layer1" inkscape:cx="-12.266628" inkscape:cy="15.954525" inkscape:document-units="mm" inkscape:pageopacity="0.0" inkscape:pageshadow="2" inkscape:window-height="1556" inkscape:window-maximized="1" inkscape:window-width="2560" inkscape:window-x="0" inkscape:window-y="0" inkscape:zoom="7.9195959" pagecolor="#ffffff" showgrid="false">
	</sodipodi:namedview>
<path id="path1978" inkscape:connector-curvature="0" class="st0" d="M0,30.7L4.8,9.5L24.5,0l19.6,9.5l4.8,21.2l-13.6,17H13.6
	L0,30.7z"/>
<text transform="matrix(1 0 0 1 14.3896 44.4453)" class="st1 st2 st3"> www</text>
<g>
	<g>
		<path class="st4" d="M39.9,9.1H10.3c-0.2,0-0.4,0.2-0.4,0.4v26.7c0,0.2,0.2,0.4,0.4,0.4h29.6c0.2,0,0.4-0.2,0.4-0.4V9.6
			C40.4,9.3,40.2,9.1,39.9,9.1z M39.5,12.9H15.8c-0.2,0-0.4,0.2-0.4,0.4c0,0.2,0.2,0.4,0.4,0.4h23.6v22H10.8v-22h3
			c0.2,0,0.4-0.2,0.4-0.4c0-0.2-0.2-0.4-0.4-0.4h-3V10h28.7L39.5,12.9L39.5,12.9z"/>
	</g>
</g>
<g>
	<g>
		<path class="st4" d="M26.6,30.1h-2.9c-1,0-1.9,0.8-1.9,1.9c0,1,0.8,1.9,1.9,1.9h2.9c1,0,1.9-0.8,1.9-1.9
			C28.4,31,27.6,30.1,26.6,30.1z M26.6,33h-2.9c-0.5,0-1-0.4-1-1c0-0.5,0.4-1,1-1h2.9c0.5,0,1,0.4,1,1C27.5,32.5,27.1,33,26.6,33z"
			/>
	</g>
</g>
<g>
	<g>
		<path class="st4" d="M36.1,11L36.1,11c-0.3,0-0.5,0.2-0.5,0.4s0.2,0.4,0.4,0.4h0.1c0.2,0,0.4-0.2,0.4-0.4
			C36.6,11.2,36.4,11,36.1,11z"/>
	</g>
</g>
<g>
	<g>
		<path class="st4" d="M38,11L38,11c-0.3,0-0.5,0.2-0.5,0.4s0.2,0.4,0.4,0.4H38c0.2,0,0.4-0.2,0.4-0.4C38.5,11.2,38.3,11,38,11z"/>
	</g>
</g>
<g>
	<g>
		<path class="st4" d="M34.1,11L34.1,11c-0.3,0-0.5,0.2-0.5,0.4s0.2,0.4,0.4,0.4h0.1c0.2,0,0.4-0.2,0.4-0.4
			C34.6,11.2,34.4,11,34.1,11z"/>
	</g>
</g>
<g>
	<g>
		<path class="st4" d="M37.9,31.3l-3.1-3.1l1.7-1.7c0.2-0.2,0.1-0.7-0.2-0.7l-3.1-0.8v-5.8c0-0.2-0.2-0.4-0.4-0.4H17.5
			c-0.2,0-0.4,0.2-0.4,0.4v9.6c0,0.2,0.2,0.4,0.4,0.4h12.2l0.7,2.6c0.1,0.3,0.5,0.4,0.7,0.2l1.7-1.7l3.1,3.1c0.2,0.2,0.5,0.2,0.6,0
			l1.4-1.4C38,31.8,38,31.5,37.9,31.3z M17.9,28.2v-8.7h14.4v5.1l-3.4-0.9c-0.3-0.1-0.6,0.2-0.5,0.5l1.1,3.9L17.9,28.2L17.9,28.2z
			 M36.2,32.3l-3.1-3.1c-0.2-0.2-0.5-0.2-0.6,0L31,30.7l-1.6-5.9l5.9,1.6l-1.5,1.5c-0.2,0.2-0.2,0.5,0,0.6l3.1,3.1L36.2,32.3z"/>
	</g>
</g>
<g>
	<g>
		<path class="st4" d="M27,16.8h-9.6c-0.2,0-0.4,0.2-0.4,0.4c0,0.2,0.2,0.4,0.4,0.4H27c0.2,0,0.4-0.2,0.4-0.4
			C27.5,17,27.3,16.8,27,16.8z"/>
	</g>
</g>
<g>
	<g>
		<path class="st4" d="M33.2,16.8h-4.8c-0.2,0-0.4,0.2-0.4,0.4c0,0.2,0.2,0.4,0.4,0.4h4.8c0.2,0,0.4-0.2,0.4-0.4
			C33.7,17,33.5,16.8,33.2,16.8z"/>
	</g>
</g>
</svg>
