<?xml version="1.0" encoding="utf-8"?>
<!-- Generator: Adobe Illustrator 22.0.1, SVG Export Plug-In . SVG Version: 6.00 Build 0)  -->
<svg version="1.1"
	 id="svg7727" inkscape:version="0.92.2 2405546, 2018-03-11" sodipodi:docname="group.svg" xmlns:cc="http://creativecommons.org/ns#" xmlns:dc="http://purl.org/dc/elements/1.1/" xmlns:inkscape="http://www.inkscape.org/namespaces/inkscape" xmlns:rdf="http://www.w3.org/1999/02/22-rdf-syntax-ns#" xmlns:sodipodi="http://sodipodi.sourceforge.net/DTD/sodipodi-0.dtd" xmlns:svg="http://www.w3.org/2000/svg"
	 xmlns="http://www.w3.org/2000/svg" xmlns:xlink="http://www.w3.org/1999/xlink" x="0px" y="0px" viewBox="0 0 48.9 47.7"
	 style="enable-background:new 0 0 48.9 47.7;" xml:space="preserve">
<style type="text/css">
	.st0{fill:#326CE5;}
	.st1{fill:#EEEEEE;}
	.st2{font-family:'ArialMT';}
	.st3{font-size:8px;}
</style>
<sodipodi:namedview  bordercolor="#666666" borderopacity="1.0" fit-margin-bottom="0" fit-margin-left="0" fit-margin-right="0" fit-margin-top="0" id="base" inkscape:current-layer="layer1" inkscape:cx="-83.64044" inkscape:cy="1.4212518" inkscape:document-units="mm" inkscape:pageopacity="0.0" inkscape:pageshadow="2" inkscape:window-height="1556" inkscape:window-maximized="1" inkscape:window-width="2560" inkscape:window-x="0" inkscape:window-y="0" inkscape:zoom="5.6" pagecolor="#ffffff" showgrid="false">
	</sodipodi:namedview>
<path id="path8377" inkscape:connector-curvature="0" class="st0" d="M0,30.7L4.8,9.5L24.5,0l19.6,9.5l4.8,21.2l-13.6,17H13.6
	L0,30.7z"/>
<text transform="matrix(1 0 0 1 14.1543 44.4453)" class="st1 st2 st3">group</text>
<path id="rect8317" inkscape:connector-curvature="0" class="st1" d="M13.6,11.1c-1.3,0-2.4,1.1-2.4,2.4v20.7c0,1.3,1.1,2.4,2.4,2.4
	h21.8c1.3,0,2.4-1.1,2.4-2.4V13.5c0-1.3-1.1-2.4-2.4-2.4H13.6z M20.9,17.6c1.5,0,2.7,1.2,2.7,2.7c0,1.5-1.2,2.7-2.7,2.7
	c-1.5,0-2.7-1.2-2.7-2.7C18.3,18.8,19.4,17.6,20.9,17.6z M28,17.6c1.5,0,2.7,1.2,2.7,2.7c0,1.5-1.2,2.7-2.7,2.7
	c-1.5,0-2.7-1.2-2.7-2.7C25.4,18.8,26.6,17.6,28,17.6z M20.9,24.7c2.1,0,6.2,1,6.2,3.1V30H14.7v-2.2C14.7,25.7,18.9,24.7,20.9,24.7z
	 M28,24.7c2.1,0,6.2,1,6.2,3.1V30h-5.3v-2.2c0-1.3-0.7-2.3-1.7-3.1C27.5,24.7,27.8,24.7,28,24.7z"/>
</svg>
