<?xml version="1.0" encoding="utf-8"?>
<!-- Generator: Adobe Illustrator 22.0.1, SVG Export Plug-In . SVG Version: 6.00 Build 0)  -->
<svg version="1.1"
	 id="svg11899" inkscape:version="0.92.2 2405546, 2018-03-11" sodipodi:docname="deploy.svg" xmlns:cc="http://creativecommons.org/ns#" xmlns:dc="http://purl.org/dc/elements/1.1/" xmlns:inkscape="http://www.inkscape.org/namespaces/inkscape" xmlns:rdf="http://www.w3.org/1999/02/22-rdf-syntax-ns#" xmlns:sodipodi="http://sodipodi.sourceforge.net/DTD/sodipodi-0.dtd" xmlns:svg="http://www.w3.org/2000/svg"
	 xmlns="http://www.w3.org/2000/svg" xmlns:xlink="http://www.w3.org/1999/xlink" x="0px" y="0px" viewBox="0 0 48.9 47.7"
	 style="enable-background:new 0 0 48.9 47.7;" xml:space="preserve">
<style type="text/css">
	.st0{fill:#326CE5;}
	.st1{fill:#EEEEEE;}
	.st2{fill-opacity:0;}
</style>
<sodipodi:namedview  bordercolor="#666666" borderopacity="1.0" fit-margin-bottom="0" fit-margin-left="0" fit-margin-right="0" fit-margin-top="0" id="base" inkscape:current-layer="layer1" inkscape:cx="-34.913484" inkscape:cy="-27.913865" inkscape:document-units="mm" inkscape:pageopacity="0.0" inkscape:pageshadow="2" inkscape:window-height="1556" inkscape:window-maximized="1" inkscape:window-width="2560" inkscape:window-x="0" inkscape:window-y="0" inkscape:zoom="3.959798" pagecolor="#ffffff" showgrid="false">
	</sodipodi:namedview>
<path id="path868" inkscape:connector-curvature="0" class="st0" d="M0,30.7L4.8,9.5L24.5,0l19.6,9.5l4.8,21.2l-13.6,17H13.6L0,30.7
	z"/>
<path id="path1222" inkscape:connector-curvature="0" class="st1" d="M25.3,36.4L25.3,36.4c-6.9,0.3-12.8-5-13.2-11.9
	c-0.4-6.9,4.9-12.8,11.8-13.2c6.9-0.4,12.9,4.8,13.3,11.8l-5,0.3c-0.3-4.2-3.9-7.4-8-7.1c-4.2,0.2-7.4,3.8-7.2,8
	c0.2,4.2,3.8,7.4,8,7.2L25.3,36.4z"/>
<path id="path1224" inkscape:connector-curvature="0" class="st1" d="M28.1,23.1l4,9.7l9.1-9.7H28.1z"/>
<path id="path1226" inkscape:connector-curvature="0" class="st2" d="M3.2,35.5h42.5v12.2H3.2V35.5z"/>
<path id="path1228" inkscape:connector-curvature="0" class="st1" d="M15.9,44.4v-0.5c-0.3,0.4-0.6,0.6-1.2,0.6
	c-0.3,0-0.6-0.1-0.9-0.3c-0.3-0.2-0.5-0.4-0.6-0.8C13,43.2,13,42.8,13,42.4c0-0.4,0.1-0.8,0.2-1.1c0.1-0.3,0.3-0.6,0.6-0.8
	c0.3-0.2,0.6-0.3,0.9-0.3c0.2,0,0.5,0.1,0.7,0.2c0.2,0.1,0.4,0.2,0.5,0.4v-2.1h0.7v5.7L15.9,44.4z M13.7,42.4c0,0.5,0.1,0.9,0.3,1.2
	c0.2,0.3,0.5,0.4,0.8,0.4s0.6-0.1,0.8-0.4c0.2-0.3,0.3-0.6,0.3-1.1c0-0.6-0.1-1-0.3-1.3c-0.2-0.3-0.5-0.4-0.8-0.4
	c-0.3,0-0.6,0.1-0.8,0.4C13.8,41.4,13.7,41.8,13.7,42.4z M20.5,43.1l0.7,0.1c-0.1,0.4-0.3,0.8-0.6,1c-0.3,0.2-0.7,0.4-1.2,0.4
	c-0.6,0-1.1-0.2-1.4-0.6c-0.4-0.4-0.5-0.9-0.5-1.6c0-0.7,0.2-1.2,0.5-1.6c0.4-0.4,0.8-0.6,1.4-0.6c0.6,0,1,0.2,1.4,0.6
	c0.4,0.4,0.5,0.9,0.5,1.6c0,0,0,0.1,0,0.2h-3.1c0,0.5,0.2,0.8,0.4,1.1c0.2,0.2,0.5,0.4,0.9,0.4c0.3,0,0.5-0.1,0.7-0.2
	C20.2,43.6,20.4,43.4,20.5,43.1L20.5,43.1z M18.2,42h2.3c0-0.3-0.1-0.6-0.3-0.8c-0.2-0.3-0.5-0.4-0.9-0.4c-0.3,0-0.6,0.1-0.8,0.3
	C18.3,41.3,18.2,41.6,18.2,42L18.2,42z M22.1,46v-5.7h0.6v0.5c0.1-0.2,0.3-0.4,0.5-0.5c0.2-0.1,0.4-0.2,0.7-0.2
	c0.4,0,0.7,0.1,0.9,0.3c0.3,0.2,0.5,0.4,0.6,0.8c0.1,0.3,0.2,0.7,0.2,1.1c0,0.4-0.1,0.8-0.2,1.1c-0.1,0.3-0.4,0.6-0.7,0.8
	c-0.3,0.2-0.6,0.3-0.9,0.3c-0.2,0-0.4,0-0.6-0.1c-0.2-0.1-0.3-0.2-0.5-0.4v2L22.1,46z M22.7,42.4c0,0.5,0.1,0.9,0.3,1.2
	c0.2,0.3,0.5,0.4,0.8,0.4c0.3,0,0.6-0.1,0.8-0.4c0.2-0.3,0.3-0.7,0.3-1.2c0-0.5-0.1-0.9-0.3-1.2c-0.2-0.3-0.5-0.4-0.8-0.4
	c-0.3,0-0.6,0.1-0.8,0.4C22.9,41.4,22.7,41.8,22.7,42.4z M26.5,44.4v-5.7h0.7v5.7H26.5z M28.1,42.4c0-0.8,0.2-1.3,0.6-1.7
	c0.4-0.3,0.8-0.5,1.3-0.5c0.6,0,1,0.2,1.4,0.6c0.4,0.4,0.6,0.9,0.6,1.5c0,0.5-0.1,1-0.2,1.3c-0.2,0.3-0.4,0.5-0.7,0.7
	c-0.3,0.2-0.6,0.2-1,0.2c-0.6,0-1-0.2-1.4-0.6C28.3,43.6,28.1,43.1,28.1,42.4L28.1,42.4z M28.8,42.4c0,0.5,0.1,0.9,0.4,1.2
	c0.2,0.3,0.5,0.4,0.9,0.4c0.4,0,0.6-0.1,0.9-0.4c0.2-0.3,0.4-0.7,0.4-1.2c0-0.5-0.1-0.9-0.4-1.2c-0.2-0.3-0.5-0.4-0.9-0.4
	c-0.3,0-0.6,0.1-0.9,0.4C28.9,41.4,28.8,41.8,28.8,42.4z M32.7,46l-0.1-0.7c0.1,0,0.3,0.1,0.4,0.1c0.2,0,0.3,0,0.4-0.1
	c0.1,0,0.2-0.1,0.2-0.2c0-0.1,0.1-0.2,0.2-0.5c0,0,0-0.1,0.1-0.2l-1.6-4.2h0.8l0.9,2.4c0.1,0.3,0.2,0.6,0.3,1
	c0.1-0.3,0.2-0.6,0.3-0.9l0.9-2.4h0.7l-1.6,4.2c-0.2,0.5-0.3,0.8-0.4,0.9c-0.1,0.2-0.3,0.4-0.4,0.5c-0.2,0.1-0.3,0.2-0.6,0.2
	C33.1,46.1,32.9,46.1,32.7,46L32.7,46z"/>
</svg>
