<?xml version="1.0" encoding="utf-8"?>
<!-- Generator: Adobe Illustrator 22.0.1, SVG Export Plug-In . SVG Version: 6.00 Build 0)  -->
<svg version="1.1"
	 id="svg9981" inkscape:version="0.92.2 2405546, 2018-03-11" sodipodi:docname="pvc.svg" xmlns:cc="http://creativecommons.org/ns#" xmlns:dc="http://purl.org/dc/elements/1.1/" xmlns:inkscape="http://www.inkscape.org/namespaces/inkscape" xmlns:rdf="http://www.w3.org/1999/02/22-rdf-syntax-ns#" xmlns:sodipodi="http://sodipodi.sourceforge.net/DTD/sodipodi-0.dtd" xmlns:svg="http://www.w3.org/2000/svg"
	 xmlns="http://www.w3.org/2000/svg" xmlns:xlink="http://www.w3.org/1999/xlink" x="0px" y="0px" viewBox="0 0 48.9 47.7"
	 style="enable-background:new 0 0 48.9 47.7;" xml:space="preserve">
<style type="text/css">
	.st0{fill:#326CE5;}
	.st1{fill-opacity:0;}
	.st2{fill:none;stroke:#EEEEEE;stroke-width:0.5292;stroke-linejoin:round;stroke-miterlimit:10;stroke-dasharray:2.1167,0.5292;}
	.st3{fill:#EEEEEE;}
</style>
<sodipodi:namedview  bordercolor="#666666" borderopacity="1.0" fit-margin-bottom="0" fit-margin-left="0" fit-margin-right="0" fit-margin-top="0" id="base" inkscape:current-layer="layer1" inkscape:cx="-102.16172" inkscape:cy="-18.43716" inkscape:document-units="mm" inkscape:pageopacity="0.0" inkscape:pageshadow="2" inkscape:window-height="1556" inkscape:window-maximized="1" inkscape:window-width="2560" inkscape:window-x="0" inkscape:window-y="0" inkscape:zoom="3.959798" pagecolor="#ffffff" showgrid="false">
	</sodipodi:namedview>
<path id="path858" inkscape:connector-curvature="0" class="st0" d="M0,30.7L4.8,9.5L24.5,0l19.6,9.5l4.8,21.2l-13.6,17H13.6L0,30.7
	z"/>
<path id="path1128" inkscape:connector-curvature="0" class="st0" d="M11.1,20.6L11.1,20.6c0,1.8,5.9,3.2,13.1,3.2
	c7.2,0,13.1-1.4,13.1-3.2v8.6c0,1.8-5.9,3.2-13.1,3.2c-7.2,0-13.1-1.4-13.1-3.2V20.6z"/>
<path id="path1130" inkscape:connector-curvature="0" class="st0" d="M11.1,20.6L11.1,20.6c0-1.8,5.9-3.2,13.1-3.2
	c7.2,0,13.1,1.4,13.1,3.2l0,0c0,1.8-5.9,3.2-13.1,3.2C17,23.8,11.1,22.4,11.1,20.6z"/>
<path id="path1132" inkscape:connector-curvature="0" class="st1" d="M37.4,20.6L37.4,20.6c0,1.8-5.9,3.2-13.1,3.2
	c-7.2,0-13.1-1.4-13.1-3.2l0,0c0-1.8,5.9-3.2,13.1-3.2C31.5,17.4,37.4,18.8,37.4,20.6v8.6c0,1.8-5.9,3.2-13.1,3.2
	c-7.2,0-13.1-1.4-13.1-3.2v-8.6"/>
<path id="path1134" inkscape:connector-curvature="0" class="st2" d="M37.4,20.6L37.4,20.6c0,1.8-5.9,3.2-13.1,3.2
	c-7.2,0-13.1-1.4-13.1-3.2l0,0c0-1.8,5.9-3.2,13.1-3.2C31.5,17.4,37.4,18.8,37.4,20.6v8.6c0,1.8-5.9,3.2-13.1,3.2
	c-7.2,0-13.1-1.4-13.1-3.2v-8.6"/>
<path id="path1136" inkscape:connector-curvature="0" class="st1" d="M9.2,35.5h30.5v12.2H9.2V35.5z"/>
<path id="path1138" inkscape:connector-curvature="0" class="st3" d="M18.8,46v-5.7h0.6v0.5c0.1-0.2,0.3-0.4,0.5-0.5
	c0.2-0.1,0.4-0.2,0.7-0.2c0.4,0,0.7,0.1,0.9,0.3c0.3,0.2,0.5,0.4,0.6,0.8c0.1,0.3,0.2,0.7,0.2,1.1c0,0.4-0.1,0.8-0.2,1.1
	c-0.1,0.3-0.4,0.6-0.7,0.8c-0.3,0.2-0.6,0.3-0.9,0.3c-0.2,0-0.4,0-0.6-0.1c-0.2-0.1-0.3-0.2-0.5-0.4v2L18.8,46z M19.4,42.4
	c0,0.5,0.1,0.9,0.3,1.2c0.2,0.3,0.5,0.4,0.8,0.4c0.3,0,0.6-0.1,0.8-0.4c0.2-0.3,0.3-0.7,0.3-1.2c0-0.5-0.1-0.9-0.3-1.2
	c-0.2-0.3-0.5-0.4-0.8-0.4c-0.3,0-0.6,0.1-0.8,0.4C19.5,41.4,19.4,41.8,19.4,42.4z M24.4,44.4l-1.6-4.1h0.7l0.9,2.5
	c0.1,0.3,0.2,0.5,0.3,0.8c0.1-0.2,0.1-0.5,0.3-0.8l0.9-2.5h0.7L25,44.4H24.4z M29.9,42.9l0.7,0.1c-0.1,0.5-0.3,0.9-0.6,1.1
	c-0.3,0.3-0.7,0.4-1.1,0.4c-0.6,0-1-0.2-1.4-0.6c-0.3-0.4-0.5-0.9-0.5-1.6c0-0.5,0.1-0.8,0.2-1.2c0.1-0.3,0.4-0.6,0.7-0.7
	c0.3-0.2,0.6-0.3,1-0.3c0.4,0,0.8,0.1,1.1,0.4c0.3,0.2,0.5,0.5,0.6,1l-0.7,0.1c-0.1-0.3-0.2-0.5-0.4-0.6c-0.2-0.1-0.4-0.2-0.6-0.2
	c-0.4,0-0.6,0.1-0.9,0.4c-0.2,0.3-0.3,0.6-0.3,1.2c0,0.6,0.1,1,0.3,1.2c0.2,0.2,0.5,0.4,0.8,0.4c0.3,0,0.5-0.1,0.7-0.3
	C29.8,43.5,29.9,43.3,29.9,42.9L29.9,42.9z"/>
</svg>
