<?xml version="1.0" encoding="utf-8"?>
<!-- Generator: Adobe Illustrator 22.0.1, SVG Export Plug-In . SVG Version: 6.00 Build 0)  -->
<svg version="1.1"
	 id="svg2070" inkscape:version="0.92.2 2405546, 2018-03-11" sodipodi:docname="ing.svg" xmlns:cc="http://creativecommons.org/ns#" xmlns:dc="http://purl.org/dc/elements/1.1/" xmlns:inkscape="http://www.inkscape.org/namespaces/inkscape" xmlns:rdf="http://www.w3.org/1999/02/22-rdf-syntax-ns#" xmlns:sodipodi="http://sodipodi.sourceforge.net/DTD/sodipodi-0.dtd" xmlns:svg="http://www.w3.org/2000/svg"
	 xmlns="http://www.w3.org/2000/svg" xmlns:xlink="http://www.w3.org/1999/xlink" x="0px" y="0px" viewBox="0 0 48.9 47.7"
	 style="enable-background:new 0 0 48.9 47.7;" xml:space="preserve">
<style type="text/css">
	.st0{fill:#326CE5;}
	.st1{fill-opacity:0;}
	.st2{fill:#EEEEEE;}
</style>
<sodipodi:namedview  bordercolor="#666666" borderopacity="1.0" fit-margin-bottom="0" fit-margin-left="0" fit-margin-right="0" fit-margin-top="0" id="base" inkscape:current-layer="layer1" inkscape:cx="-59.380361" inkscape:cy="-12.99893" inkscape:document-units="mm" inkscape:pageopacity="0.0" inkscape:pageshadow="2" inkscape:window-height="1556" inkscape:window-maximized="1" inkscape:window-width="2560" inkscape:window-x="0" inkscape:window-y="0" inkscape:zoom="5.6" pagecolor="#ffffff" showgrid="false">
	</sodipodi:namedview>
<path id="path872" inkscape:connector-curvature="0" class="st0" d="M0,30.7L4.8,9.5L24.5,0l19.6,9.5l4.8,21.2l-13.6,17H13.6L0,30.7
	z"/>
<path id="path1340" inkscape:connector-curvature="0" class="st1" d="M7.4,13.4c8.8,0,13.2,5.6,17.6,11.2
	c4.4,5.6,8.8,11.2,17.6,11.2"/>
<path id="path1350" inkscape:connector-curvature="0" class="st1" d="M8.5,35.9c8.4,0,12.5-5.6,16.7-11.1s8.4-11.1,16.7-11.1"/>
<path id="path1358" inkscape:connector-curvature="0" class="st1" d="M9.2,35.5h30.5v12.2H9.2V35.5z"/>
<path id="path1360" inkscape:connector-curvature="0" class="st2" d="M19.7,39.5v-0.8h0.7v0.8H19.7z M19.7,44.4v-4.1h0.7v4.1H19.7z
	 M21.4,44.4v-4.1h0.6v0.6c0.3-0.5,0.7-0.7,1.3-0.7c0.2,0,0.5,0,0.7,0.1c0.2,0.1,0.4,0.2,0.5,0.4c0.1,0.1,0.2,0.3,0.2,0.5
	c0,0.1,0,0.4,0,0.7v2.5h-0.7v-2.5c0-0.3,0-0.5-0.1-0.6c-0.1-0.1-0.2-0.3-0.3-0.3c-0.1-0.1-0.3-0.1-0.5-0.1c-0.3,0-0.6,0.1-0.8,0.3
	c-0.2,0.2-0.3,0.5-0.3,1.1v2.3L21.4,44.4z M25.8,44.8l0.7,0.1c0,0.2,0.1,0.4,0.2,0.5c0.2,0.1,0.4,0.2,0.7,0.2c0.3,0,0.6-0.1,0.8-0.2
	c0.2-0.1,0.3-0.3,0.4-0.5c0-0.1,0.1-0.4,0.1-0.9c-0.3,0.4-0.7,0.5-1.1,0.5c-0.6,0-1-0.2-1.3-0.6c-0.3-0.4-0.5-0.9-0.5-1.5
	c0-0.4,0.1-0.8,0.2-1.1c0.1-0.3,0.4-0.6,0.6-0.8c0.3-0.2,0.6-0.3,1-0.3c0.5,0,0.9,0.2,1.2,0.6v-0.5h0.7v3.6c0,0.6-0.1,1.1-0.2,1.4
	c-0.1,0.3-0.3,0.5-0.6,0.6c-0.3,0.2-0.6,0.2-1,0.2c-0.5,0-0.9-0.1-1.2-0.3C25.9,45.6,25.8,45.2,25.8,44.8L25.8,44.8z M26.3,42.3
	c0,0.5,0.1,0.9,0.3,1.2c0.2,0.3,0.5,0.4,0.8,0.4c0.3,0,0.6-0.1,0.8-0.4c0.2-0.2,0.3-0.6,0.3-1.2c0-0.5-0.1-0.9-0.3-1.1
	c-0.2-0.3-0.5-0.4-0.8-0.4c-0.3,0-0.6,0.1-0.8,0.4C26.5,41.4,26.3,41.8,26.3,42.3z"/>
<path id="path7709" pointer-events="none" inkscape:connector-curvature="0" class="st2" d="M32.3,35.8h-6.4L11.9,18.3h-4v-5.7h6.6
	l14,17.4h3.9v-4.5l8.8,7.4l-8.8,7.4L32.3,35.8z M25.2,22.3l3.1-3.9h3.9v4.5l8.8-7.4l-8.8-7.4v4.5h-6.4l-4.1,5.2L25.2,22.3z M15,26.2
	l-3.2,4h-4v5.7h6.6l4.2-5.2L15,26.2z"/>
</svg>
