<?xml version="1.0" encoding="utf-8"?>
<!-- Generator: Adobe Illustrator 22.0.1, SVG Export Plug-In . SVG Version: 6.00 Build 0)  -->
<svg version="1.1"
	 id="svg13936" inkscape:version="0.92.2 2405546, 2018-03-11" sodipodi:docname="etcd.svg" xmlns:cc="http://creativecommons.org/ns#" xmlns:dc="http://purl.org/dc/elements/1.1/" xmlns:inkscape="http://www.inkscape.org/namespaces/inkscape" xmlns:rdf="http://www.w3.org/1999/02/22-rdf-syntax-ns#" xmlns:sodipodi="http://sodipodi.sourceforge.net/DTD/sodipodi-0.dtd" xmlns:svg="http://www.w3.org/2000/svg"
	 xmlns="http://www.w3.org/2000/svg" xmlns:xlink="http://www.w3.org/1999/xlink" x="0px" y="0px" viewBox="0 0 48.9 47.7"
	 style="enable-background:new 0 0 48.9 47.7;" xml:space="preserve">
<style type="text/css">
	.st0{fill:#326CE5;}
	.st1{fill:#EEEEEE;}
	.st2{font-family:'ArialMT';}
	.st3{font-size:8px;}
	.st4{fill:none;stroke:#326CE5;stroke-width:0.575;stroke-linejoin:round;stroke-miterlimit:10;}
</style>
<sodipodi:namedview  bordercolor="#666666" borderopacity="1.0" fit-margin-bottom="0" fit-margin-left="0" fit-margin-right="0" fit-margin-top="0" id="base" inkscape:current-layer="layer1" inkscape:cx="-11.770262" inkscape:cy="14.754013" inkscape:document-units="mm" inkscape:pageopacity="0.0" inkscape:pageshadow="2" inkscape:window-height="1556" inkscape:window-maximized="1" inkscape:window-width="2560" inkscape:window-x="0" inkscape:window-y="0" inkscape:zoom="7.9195959" pagecolor="#ffffff" showgrid="false">
	</sodipodi:namedview>
<path id="path2072" inkscape:connector-curvature="0" class="st0" d="M0,30.7L4.8,9.5L24.5,0l19.6,9.5l4.8,21.2l-13.6,17H13.6
	L0,30.7z"/>
<text transform="matrix(1 0 0 1 16.8252 44.4453)" class="st1 st2 st3">etcd</text>
<path id="path2078" inkscape:connector-curvature="0" sodipodi:nodetypes="ccccccccccccc" class="st1" d="M24.6,9.9
	c-0.4,0-11.3,5.4-11.5,5.6c-0.3,0.7-2.8,12.1-2.7,12.4c0.1,0.1,1.9,2.4,4,5l3.8,4.8l6.3,0l6.3,0l4-5l4-5l-1.4-6.1
	c-0.8-3.4-1.5-6.2-1.5-6.3C35.7,15.2,24.8,9.9,24.6,9.9L24.6,9.9z"/>
<path id="path1212-5" inkscape:connector-curvature="0" class="st4" d="M31.4,21.6L31.4,21.6c0,1.5-3,2.7-6.8,2.7s-6.8-1.2-6.8-2.7
	l0,0c0-1.5,3-2.7,6.8-2.7S31.4,20.1,31.4,21.6v7.3c0,1.5-3,2.7-6.8,2.7s-6.8-1.2-6.8-2.7v-7.3"/>
</svg>
