<?xml version="1.0" encoding="utf-8"?>
<!-- Generator: Adobe Illustrator 22.0.1, SVG Export Plug-In . SVG Version: 6.00 Build 0)  -->
<svg version="1.1"
	 id="svg10613" inkscape:version="0.92.2 2405546, 2018-03-11" sodipodi:docname="rs.svg" xmlns:cc="http://creativecommons.org/ns#" xmlns:dc="http://purl.org/dc/elements/1.1/" xmlns:inkscape="http://www.inkscape.org/namespaces/inkscape" xmlns:rdf="http://www.w3.org/1999/02/22-rdf-syntax-ns#" xmlns:sodipodi="http://sodipodi.sourceforge.net/DTD/sodipodi-0.dtd" xmlns:svg="http://www.w3.org/2000/svg"
	 xmlns="http://www.w3.org/2000/svg" xmlns:xlink="http://www.w3.org/1999/xlink" x="0px" y="0px" viewBox="0 0 48.9 47.7"
	 style="enable-background:new 0 0 48.9 47.7;" xml:space="preserve">
<style type="text/css">
	.st0{fill:#326CE5;}
	
		.st1{fill:#326CE5;stroke:#EEEEEE;stroke-width:0.5291;stroke-linecap:square;stroke-linejoin:round;stroke-miterlimit:10;stroke-dasharray:1.5874,1.5874;stroke-dashoffset:3;}
	.st2{fill:#EEEEEE;}
	.st3{fill:none;stroke:#EEEEEE;stroke-width:0.5292;stroke-linejoin:round;stroke-miterlimit:10;}
	.st4{fill-opacity:0;}
</style>
<sodipodi:namedview  bordercolor="#666666" borderopacity="1.0" fit-margin-bottom="0" fit-margin-left="0" fit-margin-right="0" fit-margin-top="0" id="base" inkscape:current-layer="layer1" inkscape:cx="-43.791405" inkscape:cy="4.6433973" inkscape:document-units="mm" inkscape:pageopacity="0.0" inkscape:pageshadow="2" inkscape:window-height="1556" inkscape:window-maximized="1" inkscape:window-width="2560" inkscape:window-x="0" inkscape:window-y="0" inkscape:zoom="5.6" pagecolor="#ffffff" showgrid="false">
	</sodipodi:namedview>
<path id="path866" inkscape:connector-curvature="0" class="st0" d="M0,30.7L4.8,9.5L24.5,0l19.6,9.5l4.8,21.2l-13.6,17H13.6L0,30.7
	z"/>
<path id="path1158" inkscape:connector-curvature="0" class="st1" d="M20.5,14.5H39v13H20.5V14.5z"/>
<path id="path1162" inkscape:connector-curvature="0" class="st1" d="M16.2,18.5h18.5v13H16.2V18.5z"/>
<path id="path1164" inkscape:connector-curvature="0" class="st2" d="M11.8,22.5h18.5v13H11.8L11.8,22.5z"/>
<path id="path1166" inkscape:connector-curvature="0" class="st3" d="M11.8,22.5h18.5v13H11.8L11.8,22.5z"/>
<path id="path1168" inkscape:connector-curvature="0" class="st4" d="M9.2,35.5h30.5v12.2H9.2V35.5z"/>
<path id="path1170" inkscape:connector-curvature="0" class="st2" d="M21.7,44.4v-4.1h0.6v0.6c0.2-0.3,0.3-0.5,0.4-0.6
	c0.1-0.1,0.3-0.1,0.5-0.1c0.2,0,0.5,0.1,0.7,0.2l-0.2,0.6c-0.2-0.1-0.3-0.2-0.5-0.2c-0.2,0-0.3,0-0.4,0.1c-0.1,0.1-0.2,0.2-0.3,0.4
	c-0.1,0.2-0.1,0.5-0.1,0.8v2.2L21.7,44.4z M24.1,43.2l0.7-0.1c0,0.3,0.1,0.5,0.3,0.6c0.2,0.1,0.4,0.2,0.7,0.2c0.3,0,0.6-0.1,0.7-0.2
	c0.2-0.1,0.2-0.3,0.2-0.5c0-0.2-0.1-0.3-0.2-0.4c-0.1-0.1-0.3-0.1-0.7-0.2c-0.5-0.1-0.9-0.2-1.1-0.3c-0.2-0.1-0.3-0.2-0.4-0.4
	c-0.1-0.2-0.2-0.4-0.2-0.6c0-0.2,0-0.3,0.1-0.5c0.1-0.2,0.2-0.3,0.3-0.4c0.1-0.1,0.3-0.1,0.4-0.2c0.2-0.1,0.4-0.1,0.6-0.1
	c0.3,0,0.6,0,0.9,0.1c0.2,0.1,0.4,0.2,0.6,0.4c0.1,0.2,0.2,0.4,0.2,0.6l-0.7,0.1c0-0.2-0.1-0.4-0.3-0.5c-0.1-0.1-0.4-0.2-0.6-0.2
	c-0.3,0-0.6,0.1-0.7,0.2c-0.1,0.1-0.2,0.2-0.2,0.4c0,0.1,0,0.2,0.1,0.2c0.1,0.1,0.2,0.1,0.3,0.2c0.1,0,0.3,0.1,0.6,0.2
	c0.5,0.1,0.8,0.2,1,0.3c0.2,0.1,0.3,0.2,0.5,0.4c0.1,0.2,0.2,0.4,0.2,0.6c0,0.2-0.1,0.5-0.2,0.7c-0.1,0.2-0.3,0.4-0.6,0.5
	c-0.3,0.1-0.6,0.2-0.9,0.2c-0.5,0-0.9-0.1-1.2-0.3C24.3,44,24.1,43.6,24.1,43.2L24.1,43.2z"/>
</svg>
