<?xml version="1.0" encoding="utf-8"?>
<!-- Generator: Adobe Illustrator 22.0.1, SVG Export Plug-In . SVG Version: 6.00 Build 0)  -->
<svg version="1.1"
	 id="svg14562" inkscape:version="0.92.2 2405546, 2018-03-11" sodipodi:docname="vol.svg" xmlns:cc="http://creativecommons.org/ns#" xmlns:dc="http://purl.org/dc/elements/1.1/" xmlns:inkscape="http://www.inkscape.org/namespaces/inkscape" xmlns:rdf="http://www.w3.org/1999/02/22-rdf-syntax-ns#" xmlns:sodipodi="http://sodipodi.sourceforge.net/DTD/sodipodi-0.dtd" xmlns:svg="http://www.w3.org/2000/svg"
	 xmlns="http://www.w3.org/2000/svg" xmlns:xlink="http://www.w3.org/1999/xlink" x="0px" y="0px" viewBox="0 0 48.9 47.7"
	 style="enable-background:new 0 0 48.9 47.7;" xml:space="preserve">
<style type="text/css">
	.st0{fill:#326CE5;}
	.st1{fill:#EEEEEE;}
	.st2{fill:#F4F4F4;}
	.st3{fill-opacity:0;}
	.st4{fill:none;stroke:#326CE5;stroke-width:0.2646;stroke-linejoin:round;stroke-miterlimit:10;}
</style>
<sodipodi:namedview  bordercolor="#666666" borderopacity="1.0" fit-margin-bottom="0" fit-margin-left="0" fit-margin-right="0" fit-margin-top="0" id="base" inkscape:current-layer="layer1" inkscape:cx="46.843902" inkscape:cy="-1.0347522" inkscape:document-units="mm" inkscape:pageopacity="0.0" inkscape:pageshadow="2" inkscape:window-height="1556" inkscape:window-maximized="1" inkscape:window-width="2560" inkscape:window-x="0" inkscape:window-y="0" inkscape:zoom="11.2" pagecolor="#ffffff" showgrid="false">
	</sodipodi:namedview>
<path id="path870" inkscape:connector-curvature="0" class="st0" d="M0,30.7L4.8,9.5L24.5,0l19.6,9.5l4.8,21.2l-13.6,17H13.6L0,30.7
	z"/>
<path id="path1142" inkscape:connector-curvature="0" class="st1" d="M11.1,20.6L11.1,20.6c0,1.8,5.9,3.2,13.1,3.2
	s13.1-1.4,13.1-3.2v8.6c0,1.8-5.9,3.2-13.1,3.2c-7.2,0-13.1-1.4-13.1-3.2V20.6z"/>
<path id="path1144" inkscape:connector-curvature="0" class="st2" d="M11.1,20.6L11.1,20.6c0-1.8,5.9-3.2,13.1-3.2
	s13.1,1.4,13.1,3.2l0,0c0,1.8-5.9,3.2-13.1,3.2C17,23.8,11.1,22.4,11.1,20.6z"/>
<path id="path1146" inkscape:connector-curvature="0" class="st3" d="M37.4,20.6L37.4,20.6c0,1.8-5.9,3.2-13.1,3.2
	c-7.2,0-13.1-1.4-13.1-3.2l0,0c0-1.8,5.9-3.2,13.1-3.2S37.4,18.8,37.4,20.6v8.6c0,1.8-5.9,3.2-13.1,3.2c-7.2,0-13.1-1.4-13.1-3.2
	v-8.6"/>
<path id="path1148" inkscape:connector-curvature="0" class="st4" d="M37.4,20.6L37.4,20.6c0,1.8-5.9,3.2-13.1,3.2
	c-7.2,0-13.1-1.4-13.1-3.2l0,0c0-1.8,5.9-3.2,13.1-3.2S37.4,18.8,37.4,20.6v8.6c0,1.8-5.9,3.2-13.1,3.2c-7.2,0-13.1-1.4-13.1-3.2
	v-8.6"/>
<path id="path1150" inkscape:connector-curvature="0" class="st3" d="M9.2,35.5h30.5v12.2H9.2L9.2,35.5z"/>
<path id="path1152" inkscape:connector-curvature="0" class="st1" d="M21,44.4l-1.6-4.1h0.7l0.9,2.5c0.1,0.3,0.2,0.5,0.3,0.8
	c0.1-0.2,0.1-0.5,0.3-0.8l0.9-2.5h0.7l-1.6,4.1L21,44.4z M23.6,42.4c0-0.8,0.2-1.3,0.6-1.7c0.4-0.3,0.8-0.5,1.3-0.5
	c0.6,0,1,0.2,1.4,0.6c0.4,0.4,0.6,0.9,0.6,1.5c0,0.5-0.1,1-0.2,1.3c-0.2,0.3-0.4,0.5-0.7,0.7c-0.3,0.2-0.6,0.2-1,0.2
	c-0.6,0-1-0.2-1.4-0.6C23.8,43.6,23.6,43.1,23.6,42.4L23.6,42.4z M24.3,42.4c0,0.5,0.1,0.9,0.4,1.2c0.2,0.3,0.5,0.4,0.9,0.4
	c0.4,0,0.6-0.1,0.9-0.4c0.2-0.3,0.4-0.7,0.4-1.2c0-0.5-0.1-0.9-0.4-1.2c-0.2-0.3-0.5-0.4-0.9-0.4c-0.3,0-0.6,0.1-0.9,0.4
	C24.5,41.4,24.3,41.8,24.3,42.4z M28.3,44.4v-5.7H29v5.7H28.3z"/>
</svg>
