<?xml version="1.0" encoding="utf-8"?>
<!-- Generator: Adobe Illustrator 22.0.1, SVG Export Plug-In . SVG Version: 6.00 Build 0)  -->
<svg version="1.1"
	 id="svg6625" inkscape:version="0.92.2 2405546, 2018-03-11" sodipodi:docname="secret.svg" xmlns:cc="http://creativecommons.org/ns#" xmlns:dc="http://purl.org/dc/elements/1.1/" xmlns:inkscape="http://www.inkscape.org/namespaces/inkscape" xmlns:rdf="http://www.w3.org/1999/02/22-rdf-syntax-ns#" xmlns:sodipodi="http://sodipodi.sourceforge.net/DTD/sodipodi-0.dtd" xmlns:svg="http://www.w3.org/2000/svg"
	 xmlns="http://www.w3.org/2000/svg" xmlns:xlink="http://www.w3.org/1999/xlink" x="0px" y="0px" viewBox="0 0 48.9 47.7"
	 style="enable-background:new 0 0 48.9 47.7;" xml:space="preserve">
<style type="text/css">
	.st0{fill:#4B7BD0;}
	.st1{fill:#326CE5;}
	.st2{fill-opacity:0;}
	.st3{fill:none;stroke:#EEEEEE;stroke-width:0.7937;stroke-linejoin:round;stroke-miterlimit:10;}
	.st4{fill:#EEEEEE;stroke:#326CE5;stroke-width:0.2646;stroke-linecap:square;stroke-miterlimit:10;}
	.st5{fill:#EEEEEE;}
</style>
<sodipodi:namedview  bordercolor="#666666" borderopacity="1.0" fit-margin-bottom="0" fit-margin-left="0" fit-margin-right="0" fit-margin-top="0" id="base" inkscape:current-layer="layer1" inkscape:cx="-54.96777" inkscape:cy="15.438575" inkscape:document-units="mm" inkscape:pageopacity="0.0" inkscape:pageshadow="2" inkscape:window-height="1556" inkscape:window-maximized="1" inkscape:window-width="2560" inkscape:window-x="0" inkscape:window-y="0" inkscape:zoom="5.6" pagecolor="#ffffff" showgrid="false">
	</sodipodi:namedview>
<path id="path842" inkscape:connector-curvature="0" class="st0" d="M24.7,15.8l-0.4,17.9l11,13.8l13.6-16.9L24.7,15.8z"/>
<path id="path840" inkscape:connector-curvature="0" class="st1" d="M0,30.7L4.8,9.5L24.5,0l19.6,9.5l4.8,21.2l-13.6,17H13.6L0,30.7
	z"/>
<path id="path920" inkscape:connector-curvature="0" class="st2" d="M26.3,22.7h10.5"/>
<path id="path922" inkscape:connector-curvature="0" class="st3" d="M26.3,22.7h10.5"/>
<path id="path924" inkscape:connector-curvature="0" class="st2" d="M19.2,22.7h4.1"/>
<path id="path926" inkscape:connector-curvature="0" class="st3" d="M19.2,22.7h4.1"/>
<path id="path928" inkscape:connector-curvature="0" class="st2" d="M20.3,16.7h16.5"/>
<path id="path930" inkscape:connector-curvature="0" class="st3" d="M20.3,16.7h16.5"/>
<path id="path932" inkscape:connector-curvature="0" class="st2" d="M13.2,16.7h4.1"/>
<path id="path934" inkscape:connector-curvature="0" class="st3" d="M13.2,16.7h4.1"/>
<path id="path936" inkscape:connector-curvature="0" class="st4" d="M18.6,23.6L18.6,23.6c0-3.3,2.9-6,6.4-6s6.4,2.7,6.4,6h-3l0,0
	c0-1.7-1.5-3-3.4-3c-1.9,0-3.4,1.3-3.4,3H18.6z"/>
<path id="path940" inkscape:connector-curvature="0" class="st2" d="M26.3,28.7h10.5"/>
<path id="path942" inkscape:connector-curvature="0" class="st3" d="M26.3,28.7h10.5"/>
<path id="path944" inkscape:connector-curvature="0" class="st2" d="M19.2,28.7h4.1"/>
<path id="path946" inkscape:connector-curvature="0" class="st3" d="M19.2,28.7h4.1"/>
<path id="path948" inkscape:connector-curvature="0" class="st2" d="M20.3,34.7h16.5"/>
<path id="path950" inkscape:connector-curvature="0" class="st3" d="M20.3,34.7h16.5"/>
<path id="path952" inkscape:connector-curvature="0" class="st2" d="M13.2,34.7h4.1"/>
<path id="path954" inkscape:connector-curvature="0" class="st3" d="M13.2,34.7h4.1"/>
<path id="path956" inkscape:connector-curvature="0" class="st4" d="M17.1,23.5H33v10.4H17.1V23.5z"/>
<path id="path960" inkscape:connector-curvature="0" class="st2" d="M3.2,35.5h42.5v12.2H3.2V35.5z"/>
<path id="path962" inkscape:connector-curvature="0" class="st5" d="M13.8,43.2l0.7-0.1c0,0.3,0.1,0.5,0.3,0.6
	c0.2,0.1,0.4,0.2,0.7,0.2c0.3,0,0.6-0.1,0.7-0.2c0.2-0.1,0.2-0.3,0.2-0.5c0-0.2-0.1-0.3-0.2-0.4c-0.1-0.1-0.3-0.1-0.7-0.2
	c-0.5-0.1-0.9-0.2-1.1-0.3c-0.2-0.1-0.3-0.2-0.4-0.4C14,41.8,14,41.6,14,41.4c0-0.2,0-0.3,0.1-0.5c0.1-0.2,0.2-0.3,0.3-0.4
	c0.1-0.1,0.3-0.1,0.4-0.2c0.2-0.1,0.4-0.1,0.6-0.1c0.3,0,0.6,0,0.9,0.1c0.2,0.1,0.4,0.2,0.6,0.4c0.1,0.2,0.2,0.4,0.2,0.6l-0.7,0.1
	c0-0.2-0.1-0.4-0.3-0.5c-0.1-0.1-0.4-0.2-0.6-0.2c-0.3,0-0.6,0.1-0.7,0.2c-0.1,0.1-0.2,0.2-0.2,0.4c0,0.1,0,0.2,0.1,0.2
	c0.1,0.1,0.2,0.1,0.3,0.2c0.1,0,0.3,0.1,0.6,0.2c0.5,0.1,0.8,0.2,1,0.3c0.2,0.1,0.3,0.2,0.5,0.4c0.1,0.2,0.2,0.4,0.2,0.6
	c0,0.2-0.1,0.5-0.2,0.7c-0.1,0.2-0.3,0.4-0.6,0.5c-0.3,0.1-0.6,0.2-0.9,0.2c-0.5,0-0.9-0.1-1.2-0.3C14.1,44,13.9,43.6,13.8,43.2
	L13.8,43.2z M20.9,43.1l0.7,0.1c-0.1,0.4-0.3,0.8-0.6,1c-0.3,0.2-0.7,0.4-1.2,0.4c-0.6,0-1.1-0.2-1.4-0.6c-0.4-0.4-0.5-0.9-0.5-1.6
	c0-0.7,0.2-1.2,0.5-1.6c0.4-0.4,0.8-0.6,1.4-0.6c0.6,0,1,0.2,1.4,0.6c0.4,0.4,0.5,0.9,0.5,1.6c0,0,0,0.1,0,0.2h-3.1
	c0,0.5,0.2,0.8,0.4,1.1c0.2,0.2,0.5,0.4,0.9,0.4c0.3,0,0.5-0.1,0.7-0.2C20.7,43.6,20.8,43.4,20.9,43.1L20.9,43.1z M18.6,42H21
	c0-0.3-0.1-0.6-0.3-0.8c-0.2-0.3-0.5-0.4-0.9-0.4c-0.3,0-0.6,0.1-0.8,0.3C18.8,41.3,18.7,41.6,18.6,42L18.6,42z M25.3,42.9L26,43
	c-0.1,0.5-0.3,0.9-0.6,1.1c-0.3,0.3-0.7,0.4-1.1,0.4c-0.6,0-1-0.2-1.4-0.6c-0.3-0.4-0.5-0.9-0.5-1.6c0-0.5,0.1-0.8,0.2-1.2
	c0.1-0.3,0.4-0.6,0.7-0.7c0.3-0.2,0.6-0.3,1-0.3c0.4,0,0.8,0.1,1.1,0.4c0.3,0.2,0.5,0.5,0.6,1l-0.7,0.1c-0.1-0.3-0.2-0.5-0.4-0.6
	c-0.2-0.1-0.4-0.2-0.6-0.2c-0.4,0-0.6,0.1-0.9,0.4c-0.2,0.2-0.3,0.6-0.3,1.2c0,0.6,0.1,1,0.3,1.2c0.2,0.2,0.5,0.4,0.8,0.4
	c0.3,0,0.5-0.1,0.7-0.3C25.1,43.5,25.2,43.3,25.3,42.9L25.3,42.9z M26.5,44.4v-4.1h0.6v0.6c0.2-0.3,0.3-0.5,0.4-0.6
	c0.1-0.1,0.3-0.1,0.5-0.1c0.2,0,0.5,0.1,0.7,0.2l-0.2,0.6c-0.2-0.1-0.3-0.2-0.5-0.2c-0.2,0-0.3,0-0.4,0.1c-0.1,0.1-0.2,0.2-0.3,0.4
	c-0.1,0.2-0.1,0.5-0.1,0.8v2.2L26.5,44.4z M32.1,43.1l0.7,0.1c-0.1,0.4-0.3,0.7-0.6,1c-0.3,0.2-0.7,0.4-1.2,0.4
	c-0.6,0-1.1-0.2-1.4-0.6c-0.4-0.4-0.5-0.9-0.5-1.6c0-0.7,0.2-1.2,0.5-1.6c0.4-0.4,0.8-0.6,1.4-0.6c0.6,0,1,0.2,1.4,0.6
	c0.4,0.4,0.5,0.9,0.5,1.6c0,0,0,0.1,0,0.2h-3.1c0,0.5,0.2,0.8,0.4,1.1c0.2,0.2,0.5,0.4,0.9,0.4c0.3,0,0.5-0.1,0.7-0.2
	C31.8,43.6,31.9,43.4,32.1,43.1L32.1,43.1z M29.7,42h2.3c0-0.3-0.1-0.6-0.3-0.8c-0.2-0.3-0.5-0.4-0.9-0.4c-0.3,0-0.6,0.1-0.8,0.3
	C29.9,41.3,29.8,41.6,29.7,42L29.7,42z M35.2,43.8l0.1,0.6c-0.2,0-0.4,0.1-0.5,0.1c-0.2,0-0.4,0-0.6-0.1c-0.1-0.1-0.2-0.2-0.3-0.3
	c-0.1-0.1-0.1-0.4-0.1-0.8v-2.4h-0.5v-0.6h0.5v-1l0.7-0.4v1.4h0.7v0.6h-0.7v2.4c0,0.2,0,0.3,0,0.4c0,0.1,0.1,0.1,0.1,0.1
	c0.1,0,0.1,0,0.2,0C35,43.8,35.1,43.8,35.2,43.8L35.2,43.8z"/>
<circle id="path7280" class="st1" cx="25" cy="28.6" r="1.6"/>
</svg>
