<?xml version="1.0" encoding="utf-8"?>
<!-- Generator: Adobe Illustrator 22.0.1, SVG Export Plug-In . SVG Version: 6.00 Build 0)  -->
<svg version="1.1"
	 id="svg5891" inkscape:version="0.92.2 2405546, 2018-03-11" sodipodi:docname="cm.svg" xmlns:cc="http://creativecommons.org/ns#" xmlns:dc="http://purl.org/dc/elements/1.1/" xmlns:inkscape="http://www.inkscape.org/namespaces/inkscape" xmlns:rdf="http://www.w3.org/1999/02/22-rdf-syntax-ns#" xmlns:sodipodi="http://sodipodi.sourceforge.net/DTD/sodipodi-0.dtd" xmlns:svg="http://www.w3.org/2000/svg"
	 xmlns="http://www.w3.org/2000/svg" xmlns:xlink="http://www.w3.org/1999/xlink" x="0px" y="0px" viewBox="0 0 48.9 47.7"
	 style="enable-background:new 0 0 48.9 47.7;" xml:space="preserve">
<style type="text/css">
	.st0{fill:#326CE5;}
	.st1{fill-opacity:0;}
	.st2{fill:none;stroke:#EEEEEE;stroke-width:0.7937;stroke-linejoin:round;stroke-miterlimit:10;}
	.st3{fill:#EEEEEE;}
</style>
<sodipodi:namedview  bordercolor="#666666" borderopacity="1.0" fit-margin-bottom="0" fit-margin-left="0" fit-margin-right="0" fit-margin-top="0" id="base" inkscape:current-layer="layer1" inkscape:cx="-95.65825" inkscape:cy="-27.451064" inkscape:document-units="mm" inkscape:pageopacity="0.0" inkscape:pageshadow="2" inkscape:window-height="1556" inkscape:window-maximized="1" inkscape:window-width="2560" inkscape:window-x="0" inkscape:window-y="0" inkscape:zoom="3.959798" pagecolor="#ffffff" showgrid="false">
	</sodipodi:namedview>
<path id="path836" inkscape:connector-curvature="0" inkscape:export-xdpi="376.57999" inkscape:export-ydpi="376.57999" class="st0" d="
	M0,30.7L4.8,9.5L24.5,0l19.6,9.5l4.8,21.2l-13.6,17H13.6L0,30.7z"/>
<path id="path874" inkscape:connector-curvature="0" inkscape:export-xdpi="376.57999" inkscape:export-ydpi="376.57999" class="st1" d="
	M20.3,16.7h16.5"/>
<path id="path876" inkscape:connector-curvature="0" inkscape:export-xdpi="376.57999" inkscape:export-ydpi="376.57999" class="st2" d="
	M20.3,16.7h16.5"/>
<path id="path878" inkscape:connector-curvature="0" inkscape:export-xdpi="376.57999" inkscape:export-ydpi="376.57999" class="st1" d="
	M13.2,16.7h4.1"/>
<path id="path880" inkscape:connector-curvature="0" inkscape:export-xdpi="376.57999" inkscape:export-ydpi="376.57999" class="st2" d="
	M13.2,16.7h4.1"/>
<path id="path882" inkscape:connector-curvature="0" inkscape:export-xdpi="376.57999" inkscape:export-ydpi="376.57999" class="st1" d="
	M26.3,22.7h10.5"/>
<path id="path884" inkscape:connector-curvature="0" inkscape:export-xdpi="376.57999" inkscape:export-ydpi="376.57999" class="st2" d="
	M26.3,22.7h10.5"/>
<path id="path886" inkscape:connector-curvature="0" inkscape:export-xdpi="376.57999" inkscape:export-ydpi="376.57999" class="st1" d="
	M19.2,22.7h4.1"/>
<path id="path888" inkscape:connector-curvature="0" inkscape:export-xdpi="376.57999" inkscape:export-ydpi="376.57999" class="st2" d="
	M19.2,22.7h4.1"/>
<path id="path890" inkscape:connector-curvature="0" inkscape:export-xdpi="376.57999" inkscape:export-ydpi="376.57999" class="st1" d="
	M26.3,28.7h10.5"/>
<path id="path892" inkscape:connector-curvature="0" inkscape:export-xdpi="376.57999" inkscape:export-ydpi="376.57999" class="st2" d="
	M26.3,28.7h10.5"/>
<path id="path894" inkscape:connector-curvature="0" inkscape:export-xdpi="376.57999" inkscape:export-ydpi="376.57999" class="st1" d="
	M19.2,28.7h4.1"/>
<path id="path896" inkscape:connector-curvature="0" inkscape:export-xdpi="376.57999" inkscape:export-ydpi="376.57999" class="st2" d="
	M19.2,28.7h4.1"/>
<path id="path898" inkscape:connector-curvature="0" inkscape:export-xdpi="376.57999" inkscape:export-ydpi="376.57999" class="st1" d="
	M20.3,34.7h16.5"/>
<path id="path900" inkscape:connector-curvature="0" inkscape:export-xdpi="376.57999" inkscape:export-ydpi="376.57999" class="st2" d="
	M20.3,34.7h16.5"/>
<path id="path902" inkscape:connector-curvature="0" inkscape:export-xdpi="376.57999" inkscape:export-ydpi="376.57999" class="st1" d="
	M13.2,34.7h4.1"/>
<path id="path904" inkscape:connector-curvature="0" inkscape:export-xdpi="376.57999" inkscape:export-ydpi="376.57999" class="st2" d="
	M13.2,34.7h4.1"/>
<path id="path906" inkscape:connector-curvature="0" inkscape:export-xdpi="376.57999" inkscape:export-ydpi="376.57999" class="st1" d="
	M9.2,35.5h30.5v12.2H9.2L9.2,35.5z"/>
<path id="path908" inkscape:connector-curvature="0" inkscape:export-xdpi="376.57999" inkscape:export-ydpi="376.57999" class="st3" d="
	M22.4,42.9l0.7,0.1c-0.1,0.5-0.3,0.9-0.6,1.1c-0.3,0.3-0.7,0.4-1.1,0.4c-0.6,0-1-0.2-1.4-0.6c-0.3-0.4-0.5-0.9-0.5-1.6
	c0-0.5,0.1-0.8,0.2-1.2c0.1-0.3,0.4-0.6,0.7-0.7c0.3-0.2,0.6-0.3,1-0.3c0.4,0,0.8,0.1,1.1,0.4c0.3,0.2,0.5,0.5,0.6,1l-0.7,0.1
	c-0.1-0.3-0.2-0.5-0.4-0.6c-0.2-0.1-0.4-0.2-0.6-0.2c-0.4,0-0.6,0.1-0.9,0.4c-0.2,0.2-0.3,0.6-0.3,1.2c0,0.6,0.1,1,0.3,1.2
	c0.2,0.3,0.5,0.4,0.8,0.4c0.3,0,0.5-0.1,0.7-0.3C22.2,43.5,22.3,43.3,22.4,42.9L22.4,42.9z M23.7,44.4v-4.1h0.6v0.6
	c0.1-0.2,0.3-0.4,0.5-0.5c0.2-0.1,0.5-0.2,0.7-0.2c0.3,0,0.6,0.1,0.7,0.2c0.2,0.1,0.3,0.3,0.4,0.5c0.3-0.5,0.8-0.7,1.3-0.7
	c0.4,0,0.7,0.1,0.9,0.4c0.2,0.2,0.3,0.6,0.3,1v2.8h-0.7v-2.6c0-0.3,0-0.5-0.1-0.6c0-0.1-0.1-0.2-0.3-0.3c-0.1-0.1-0.3-0.1-0.4-0.1
	c-0.3,0-0.5,0.1-0.7,0.3c-0.2,0.2-0.3,0.5-0.3,0.9v2.4h-0.7v-2.7c0-0.3-0.1-0.5-0.2-0.7c-0.1-0.2-0.3-0.2-0.6-0.2
	c-0.2,0-0.4,0.1-0.6,0.2c-0.2,0.1-0.3,0.3-0.4,0.5c-0.1,0.2-0.1,0.5-0.1,0.9v2.1L23.7,44.4z"/>
</svg>
