<?xml version="1.0" encoding="utf-8"?>
<!-- Generator: Adobe Illustrator 22.0.1, SVG Export Plug-In . SVG Version: 6.00 Build 0)  -->
<svg version="1.1"
	 id="svg2709" inkscape:version="0.92.2 2405546, 2018-03-11" sodipodi:docname="psp.svg" xmlns:cc="http://creativecommons.org/ns#" xmlns:dc="http://purl.org/dc/elements/1.1/" xmlns:inkscape="http://www.inkscape.org/namespaces/inkscape" xmlns:rdf="http://www.w3.org/1999/02/22-rdf-syntax-ns#" xmlns:sodipodi="http://sodipodi.sourceforge.net/DTD/sodipodi-0.dtd" xmlns:svg="http://www.w3.org/2000/svg"
	 xmlns="http://www.w3.org/2000/svg" xmlns:xlink="http://www.w3.org/1999/xlink" x="0px" y="0px" viewBox="0 0 48.9 47.7"
	 style="enable-background:new 0 0 48.9 47.7;" xml:space="preserve">
<style type="text/css">
	.st0{fill:#326CE5;}
	.st1{fill-opacity:0;}
	.st2{fill:#EEEEEE;}
	.st3{font-family:'ArialMT';}
	.st4{font-size:8px;}
</style>
<sodipodi:namedview  bordercolor="#666666" borderopacity="1.0" fit-margin-bottom="0" fit-margin-left="0" fit-margin-right="0" fit-margin-top="0" id="base" inkscape:current-layer="layer1" inkscape:cx="-85.148266" inkscape:cy="-14.182935" inkscape:document-units="mm" inkscape:pageopacity="0.0" inkscape:pageshadow="2" inkscape:window-height="1556" inkscape:window-maximized="1" inkscape:window-width="2560" inkscape:window-x="0" inkscape:window-y="0" inkscape:zoom="3.959798" pagecolor="#ffffff" showgrid="false">
	</sodipodi:namedview>
<path id="path1846" inkscape:connector-curvature="0" inkscape:export-xdpi="376.57999" inkscape:export-ydpi="376.57999" class="st0" d="
	M0,30.7L4.8,9.5L24.5,0l19.6,9.5l4.8,21.2l-13.6,17H13.6L0,30.7z"/>
<path id="path1854" inkscape:connector-curvature="0" inkscape:export-xdpi="376.57999" inkscape:export-ydpi="376.57999" class="st1" d="
	M9.2,35.5h30.5v12.2H9.2V35.5z"/>
<g id="g1901" transform="matrix(1.3480498,0,0,1.3480498,463.36773,79.918054)">
	<path id="path1848" inkscape:connector-curvature="0" class="st2" d="M-328.1-52l-8,2.3l8,2.3l2.4-0.7c1.1-1,2.5-1.6,4.1-1.6
		c0.4,0,0.8,0,1.1,0.1l0.4-0.1L-328.1-52z"/>
	<path id="path1850" inkscape:connector-curvature="0" class="st2" d="M-336.1-48.8v8.5l6.6,3.7v-2.6c0-0.8,0.3-1.4,0.8-2l0-5.4
		L-336.1-48.8z"/>
	<path id="path1852" inkscape:connector-curvature="0" class="st2" d="M-326.8-46.9l-0.8,0.3l0,1.9
		C-327.5-45.5-327.2-46.2-326.8-46.9L-326.8-46.9z M-321.7-44.6c-0.6,0-1,0.4-1,1v1h1.9v-1C-320.7-44.2-321.1-44.6-321.7-44.6z"/>
	
		<path id="path7594-3" inkscape:original="M -329.23047 -49.712891 C -329.82864 -49.712891 -330.31445 -49.22707 -330.31445 -48.628906 L -330.31445 -47.978516 C -330.55285 -47.978516 -330.74805 -47.783319 -330.74805 -47.544922 L -330.74805 -45.810547 C -330.74805 -45.572146 -330.55285 -45.378906 -330.31445 -45.378906 L -328.14648 -45.378906 C -327.90808 -45.378906 -327.71289 -45.572146 -327.71289 -45.810547 L -327.71289 -47.544922 C -327.71289 -47.783319 -327.90808 -47.978516 -328.14648 -47.978516 L -328.14648 -48.628906 C -328.14648 -49.22707 -328.63231 -49.712891 -329.23047 -49.712891 z M -329.23047 -49.279297 C -328.87071 -49.279297 -328.58008 -48.988673 -328.58008 -48.628906 L -328.58008 -47.978516 L -329.88086 -47.978516 L -329.88086 -48.628906 C -329.88086 -48.988673 -329.59024 -49.279297 -329.23047 -49.279297 z " inkscape:radius="0" sodipodi:type="inkscape:offset" class="st2" d="
		M-321.7-48.5c-2.4,0-4.4,2-4.4,4.4v2.6c-1,0-1.8,0.8-1.8,1.8v7c0,1,0.8,1.7,1.8,1.7h8.8c1,0,1.8-0.8,1.8-1.7v-7
		c0-1-0.8-1.8-1.8-1.8v-2.6C-317.3-46.5-319.2-48.5-321.7-48.5z M-321.7-46.7c1.5,0,2.6,1.2,2.6,2.6v2.6h-5.3v-2.6
		C-324.3-45.5-323.1-46.7-321.7-46.7z"/>
</g>
<text transform="matrix(1 0 0 1 18.042 44.4453)" class="st2 st3 st4">psp</text>
</svg>
