<?xml version="1.0" encoding="utf-8"?>
<!-- Generator: Adobe Illustrator 22.0.1, SVG Export Plug-In . SVG Version: 6.00 Build 0)  -->
<svg version="1.1"
	 id="svg5203" inkscape:version="0.92.2 2405546, 2018-03-11" sodipodi:docname="sa.svg" xmlns:cc="http://creativecommons.org/ns#" xmlns:dc="http://purl.org/dc/elements/1.1/" xmlns:inkscape="http://www.inkscape.org/namespaces/inkscape" xmlns:rdf="http://www.w3.org/1999/02/22-rdf-syntax-ns#" xmlns:sodipodi="http://sodipodi.sourceforge.net/DTD/sodipodi-0.dtd" xmlns:svg="http://www.w3.org/2000/svg"
	 xmlns="http://www.w3.org/2000/svg" xmlns:xlink="http://www.w3.org/1999/xlink" x="0px" y="0px" viewBox="0 0 48.9 47.7"
	 style="enable-background:new 0 0 48.9 47.7;" xml:space="preserve">
<style type="text/css">
	.st0{fill:#326CE5;}
	.st1{fill:#EEEEEE;}
	.st2{font-family:'ArialMT';}
	.st3{font-size:8px;}
</style>
<sodipodi:namedview  bordercolor="#666666" borderopacity="1.0" fit-margin-bottom="0" fit-margin-left="0" fit-margin-right="0" fit-margin-top="0" id="base" inkscape:current-layer="layer1" inkscape:cx="-25.06199" inkscape:cy="11.447852" inkscape:document-units="mm" inkscape:pageopacity="0.0" inkscape:pageshadow="2" inkscape:window-height="1556" inkscape:window-maximized="1" inkscape:window-width="2560" inkscape:window-x="0" inkscape:window-y="0" inkscape:zoom="5.6" pagecolor="#ffffff" showgrid="false">
	</sodipodi:namedview>
<path id="path7750" inkscape:connector-curvature="0" class="st0" d="M0,30.7L4.8,9.5L24.5,0l19.6,9.5l4.8,21.2l-13.6,17H13.6
	L0,30.7z"/>
<text transform="matrix(1 0 0 1 20.1611 44.4453)" class="st1 st2 st3">sa</text>
<path id="path7707" pointer-events="none" inkscape:connector-curvature="0" class="st1" d="M24.5,9.9L13,14.9v7.6
	c0,7.1,4.9,13.7,11.5,15.3c6.6-1.6,11.5-8.2,11.5-15.3v-7.6L24.5,9.9z M24.5,15.2c1.5,0,2.8,0.9,3.4,2.3c0.6,1.4,0.3,2.9-0.8,4
	c-1,1-2.6,1.4-4,0.8c-1.4-0.6-2.3-1.9-2.3-3.4C20.8,16.9,22.4,15.2,24.5,15.2z M31.3,30.4c0,0.1,0,0.2-0.1,0.3
	c-0.1,0.1-0.2,0.3-0.3,0.4c-1.6,2.2-3.9,3.9-6.5,4.7c-2.6-0.8-4.9-2.5-6.5-4.7c-0.1-0.1-0.2-0.2-0.3-0.4c-0.1-0.1-0.1-0.2-0.1-0.3
	v-2c0-2.8,4.6-4.2,6.9-4.2c2.3,0,6.9,1.4,6.9,4.2L31.3,30.4z"/>
</svg>
