<?xml version="1.0" encoding="utf-8"?>
<!-- Generator: Adobe Illustrator 22.0.1, SVG Export Plug-In . SVG Version: 6.00 Build 0)  -->
<svg version="1.1"
	 id="svg7343" inkscape:version="0.92.2 2405546, 2018-03-11" sodipodi:docname="svc.svg" xmlns:cc="http://creativecommons.org/ns#" xmlns:dc="http://purl.org/dc/elements/1.1/" xmlns:inkscape="http://www.inkscape.org/namespaces/inkscape" xmlns:rdf="http://www.w3.org/1999/02/22-rdf-syntax-ns#" xmlns:sodipodi="http://sodipodi.sourceforge.net/DTD/sodipodi-0.dtd" xmlns:svg="http://www.w3.org/2000/svg"
	 xmlns="http://www.w3.org/2000/svg" xmlns:xlink="http://www.w3.org/1999/xlink" x="0px" y="0px" viewBox="0 0 48.9 47.7"
	 style="enable-background:new 0 0 48.9 47.7;" xml:space="preserve">
<style type="text/css">
	.st0{fill:#326CE5;}
	.st1{fill:#EEEEEE;}
	.st2{fill-opacity:0;}
	.st3{fill:none;stroke:#EEEEEE;stroke-width:0.5292;stroke-linejoin:round;stroke-miterlimit:10;}
</style>
<sodipodi:namedview  bordercolor="#666666" borderopacity="1.0" fit-margin-bottom="0" fit-margin-left="0" fit-margin-right="0" fit-margin-top="0" id="base" inkscape:current-layer="layer1" inkscape:cx="-60.808946" inkscape:cy="-20.435846" inkscape:document-units="mm" inkscape:pageopacity="0.0" inkscape:pageshadow="2" inkscape:window-height="1556" inkscape:window-maximized="1" inkscape:window-width="2560" inkscape:window-x="0" inkscape:window-y="0" inkscape:zoom="5.6" pagecolor="#ffffff" showgrid="false">
	</sodipodi:namedview>
<path id="path848" inkscape:connector-curvature="0" class="st0" d="M0,30.7L4.8,9.5L24.5,0l19.6,9.5l4.8,21.2l-13.6,17H13.6L0,30.7
	z"/>
<path id="path964" inkscape:connector-curvature="0" class="st1" d="M9.1,30.2h8.2V36H9.1V30.2z"/>
<path id="path966" inkscape:connector-curvature="0" class="st1" d="M20.4,30.2h8.2V36h-8.2V30.2z"/>
<path id="path968" inkscape:connector-curvature="0" class="st1" d="M31.6,30.2h8.2V36h-8.2L31.6,30.2z"/>
<path id="path970" inkscape:connector-curvature="0" class="st1" d="M17.9,13.1H31v5.8H17.9V13.1z"/>
<path id="path972" inkscape:connector-curvature="0" class="st2" d="M9.2,35.5h30.5v12.2H9.2V35.5z"/>
<path id="path974" inkscape:connector-curvature="0" class="st1" d="M18.7,43.2l0.7-0.1c0,0.3,0.1,0.5,0.3,0.6
	c0.2,0.1,0.4,0.2,0.7,0.2c0.3,0,0.6-0.1,0.7-0.2c0.2-0.1,0.2-0.3,0.2-0.5c0-0.2-0.1-0.3-0.2-0.4c-0.1-0.1-0.3-0.1-0.7-0.2
	c-0.5-0.1-0.9-0.2-1.1-0.3c-0.2-0.1-0.3-0.2-0.4-0.4c-0.1-0.2-0.2-0.4-0.2-0.6c0-0.2,0-0.3,0.1-0.5c0.1-0.2,0.2-0.3,0.3-0.4
	c0.1-0.1,0.3-0.1,0.4-0.2c0.2-0.1,0.4-0.1,0.6-0.1c0.3,0,0.6,0,0.9,0.1c0.3,0.1,0.4,0.2,0.6,0.4c0.1,0.2,0.2,0.4,0.2,0.6l-0.7,0.1
	c0-0.2-0.1-0.4-0.3-0.5c-0.1-0.1-0.4-0.2-0.6-0.2c-0.3,0-0.6,0.1-0.7,0.2c-0.1,0.1-0.2,0.2-0.2,0.4c0,0.1,0,0.2,0.1,0.2
	c0.1,0.1,0.2,0.1,0.3,0.2c0.1,0,0.3,0.1,0.6,0.2c0.5,0.1,0.8,0.2,1,0.3c0.2,0.1,0.3,0.2,0.5,0.4c0.1,0.2,0.2,0.4,0.2,0.6
	c0,0.2-0.1,0.5-0.2,0.7c-0.1,0.2-0.3,0.4-0.6,0.5c-0.3,0.1-0.6,0.2-0.9,0.2c-0.5,0-0.9-0.1-1.2-0.3C19,44,18.8,43.6,18.7,43.2
	L18.7,43.2z M24.2,44.4l-1.6-4.1h0.7l0.9,2.5c0.1,0.3,0.2,0.5,0.3,0.8c0.1-0.2,0.1-0.5,0.3-0.8l0.9-2.5h0.7l-1.6,4.1H24.2z
	 M29.7,42.9l0.7,0.1c-0.1,0.5-0.3,0.9-0.6,1.1c-0.3,0.3-0.7,0.4-1.1,0.4c-0.6,0-1-0.2-1.4-0.6c-0.3-0.4-0.5-0.9-0.5-1.6
	c0-0.5,0.1-0.8,0.2-1.2c0.1-0.3,0.4-0.6,0.7-0.8c0.3-0.2,0.6-0.3,1-0.3c0.4,0,0.8,0.1,1.1,0.4c0.3,0.2,0.5,0.5,0.6,1l-0.7,0.1
	c-0.1-0.3-0.2-0.5-0.4-0.6c-0.2-0.1-0.4-0.2-0.6-0.2c-0.4,0-0.6,0.1-0.9,0.4c-0.2,0.3-0.3,0.6-0.3,1.2c0,0.6,0.1,1,0.3,1.2
	c0.2,0.2,0.5,0.4,0.8,0.4c0.3,0,0.5-0.1,0.7-0.3C29.5,43.5,29.7,43.3,29.7,42.9L29.7,42.9z"/>
<path id="path976" inkscape:connector-curvature="0" class="st2" d="M24.5,18.9v5.7H13.2v5.7"/>
<path id="path978" inkscape:connector-curvature="0" class="st3" d="M24.5,18.9v5.7H13.2v5.7"/>
<path id="path980" inkscape:connector-curvature="0" class="st2" d="M24.5,18.9v5.7h0v5.7"/>
<path id="path982" inkscape:connector-curvature="0" class="st3" d="M24.5,18.9v5.7h0v5.7"/>
<path id="path984" inkscape:connector-curvature="0" class="st2" d="M24.5,18.9v5.7h11.2v5.7"/>
<path id="path986" inkscape:connector-curvature="0" class="st3" d="M24.5,18.9v5.7h11.2v5.7"/>
</svg>
