<?xml version="1.0" encoding="utf-8"?>
<!-- Generator: Adobe Illustrator 22.0.1, SVG Export Plug-In . SVG Version: 6.00 Build 0)  -->
<svg version="1.1"
	 id="svg8071" inkscape:version="0.92.2 2405546, 2018-03-11" sodipodi:docname="ep.svg" xmlns:cc="http://creativecommons.org/ns#" xmlns:dc="http://purl.org/dc/elements/1.1/" xmlns:inkscape="http://www.inkscape.org/namespaces/inkscape" xmlns:rdf="http://www.w3.org/1999/02/22-rdf-syntax-ns#" xmlns:sodipodi="http://sodipodi.sourceforge.net/DTD/sodipodi-0.dtd" xmlns:svg="http://www.w3.org/2000/svg"
	 xmlns="http://www.w3.org/2000/svg" xmlns:xlink="http://www.w3.org/1999/xlink" x="0px" y="0px" viewBox="0 0 48.9 47.7"
	 style="enable-background:new 0 0 48.9 47.7;" xml:space="preserve">
<style type="text/css">
	.st0{fill:#326CE5;}
	.st1{fill:#EEEEEE;}
	.st2{fill-opacity:0;}
</style>
<sodipodi:namedview  bordercolor="#666666" borderopacity="1.0" fit-margin-bottom="0" fit-margin-left="0" fit-margin-right="0" fit-margin-top="0" id="base" inkscape:current-layer="layer1" inkscape:cx="-108.33771" inkscape:cy="-14.386059" inkscape:document-units="mm" inkscape:pageopacity="0.0" inkscape:pageshadow="2" inkscape:window-height="1556" inkscape:window-maximized="1" inkscape:window-width="2560" inkscape:window-x="0" inkscape:window-y="0" inkscape:zoom="3.959798" pagecolor="#ffffff" showgrid="false">
	</sodipodi:namedview>
<path id="path1989" inkscape:connector-curvature="0" class="st0" d="M0,30.7L4.8,9.5L24.5,0l19.6,9.5l4.8,21.2l-13.6,17H13.6
	L0,30.7z"/>
<path id="path1991" inkscape:connector-curvature="0" class="st1" d="M9.1,30.2h8.2V36H9.1V30.2z"/>
<path id="path1993" inkscape:connector-curvature="0" class="st1" d="M20.4,30.2h8.2V36h-8.2V30.2z"/>
<path id="path2002" inkscape:connector-curvature="0" class="st1" d="M31.6,30.2h8.2V36h-8.2L31.6,30.2z"/>
<path id="path2005" inkscape:connector-curvature="0" class="st1" d="M17.9,13.1H31v5.8H17.9V13.1z"/>
<path id="path2007" inkscape:connector-curvature="0" class="st2" d="M9.2,35.5h30.5v12.2H9.2V35.5z"/>
<path id="path2011" inkscape:connector-curvature="0" class="st2" d="M24.5,18.9v5.7H13.2v5.7"/>
<path id="path2015" inkscape:connector-curvature="0" class="st2" d="M24.5,18.9v5.7h0v5.7"/>
<path id="path2019" inkscape:connector-curvature="0" class="st2" d="M24.5,18.9v5.7h11.2v5.7"/>
<g id="g2062" transform="rotate(45.016516,-227.83943,245.15373)">
	
		<rect id="rect2056" x="-215.3" y="-85.7" transform="matrix(2.750210e-06 1 -1 2.750210e-06 -295.8896 126.428)" class="st1" width="8.2" height="1.8"/>
	
		<path id="path2058" inkscape:flatsided="false" inkscape:randomized="0" inkscape:rounded="0" inkscape:transform-center-x="-0.12952442" inkscape:transform-center-y="0.2874645" sodipodi:arg1="1.1997554" sodipodi:arg2="2.246953" sodipodi:cx="-225.24307" sodipodi:cy="-91.970558" sodipodi:r1="2.2534723" sodipodi:r2="1.1267362" sodipodi:sides="3" sodipodi:type="star" class="st1" d="
		M-211.1-78.2l-1.5-2.5l-1.5-2.5l2.9,0l2.9,0l-1.4,2.5L-211.1-78.2z"/>
</g>
<g id="g2068" transform="matrix(-0.70690292,0.70731058,0.70731058,0.70690292,-84.38015,233.00708)">
	<rect id="rect2064" x="-230.1" y="-62.6" class="st1" width="1.8" height="-8.2"/>
	
		<path id="path2066" inkscape:flatsided="false" inkscape:randomized="0" inkscape:rounded="0" inkscape:transform-center-x="-0.12952442" inkscape:transform-center-y="0.2874645" sodipodi:arg1="1.1997554" sodipodi:arg2="2.246953" sodipodi:cx="-225.24307" sodipodi:cy="-91.970558" sodipodi:r1="2.2534723" sodipodi:r2="1.1267362" sodipodi:sides="3" sodipodi:type="star" class="st1" d="
		M-229.1-60.2l-1.5-2.5l-1.5-2.5l2.9,0l2.9,0l-1.4,2.5L-229.1-60.2z"/>
</g>
<polygon id="rect2070" class="st1" points="25.2,20.7 23.3,20.7 23.3,27.1 25.1,27.1 "/>
<path id="path2073" inkscape:flatsided="false" inkscape:randomized="0" inkscape:rounded="0" inkscape:transform-center-x="-0.12952442" inkscape:transform-center-y="0.2874645" sodipodi:arg1="1.1997554" sodipodi:arg2="2.246953" sodipodi:cx="-225.24307" sodipodi:cy="-91.970558" sodipodi:r1="2.2534723" sodipodi:r2="1.1267362" sodipodi:sides="3" sodipodi:type="star" class="st1" d="
	M24.1,29.5l1.5-2.5l1.5-2.5l-2.9,0l-2.9,0l1.4,2.5L24.1,29.5z"/>
</svg>
