<?xml version="1.0" encoding="utf-8"?>
<!-- Generator: Adobe Illustrator 22.0.1, SVG Export Plug-In . SVG Version: 6.00 Build 0)  -->
<svg version="1.1" id="Calque_1" xmlns="http://www.w3.org/2000/svg" xmlns:xlink="http://www.w3.org/1999/xlink" x="0px" y="0px"
	 viewBox="0 0 48.9 47.7" style="enable-background:new 0 0 48.9 47.7;" xml:space="preserve">
<style type="text/css">
	.st0{fill:#326CE5;}
	.st1{fill:#EEEEEE;}
	.st2{display:none;}
	.st3{display:inline;}
	.st4{fill:#FFFFFF;}
	.st5{fill:#FDFFFD;}
</style>
<g id="layer1" transform="translate(-1.28847,-0.94341)" >
	<path id="path1988" class="st0" d="M1.3,31.6l4.8-21.2l19.6-9.5l19.6,9.5l4.8,21.2l-13.6,17H14.9
		L1.3,31.6z"/>
</g>
<path class="st1" d="M24.4,10.9c-0.4,0-11.3,5.4-11.5,5.6c-0.3,0.7-2.8,12.1-2.7,12.4c0.1,0.1,1.9,2.4,4,5l3.8,4.8h6.3h6.3l4-5l4-5
	l-1.4-6.1c-0.8-3.4-1.5-6.2-1.5-6.3C35.6,16.2,24.6,10.9,24.4,10.9L24.4,10.9z"/>
<path class="st0" d="M24.9,15.5c0,0.4,0,0.9-0.1,1.3c0,0.1,0,0.1,0.1,0.1c1.4,0.2,2.6,0.6,3.8,1.3c0.1,0.1,0.2,0,0.2-0.1
	c0.3-0.8,0.8-1.5,1.5-2.1c0.2-0.2,0.5-0.4,0.8-0.4c0.3-0.1,0.5,0.1,0.5,0.4s0,0.6-0.1,0.9c-0.3,0.8-0.8,1.6-1.5,2.2
	c-0.1,0.1-0.1,0.1,0,0.2c0.5,0.5,1,1.1,1.4,1.7c0.1,0.1,0.1,0.2,0,0.2c-0.3,0.2-0.6,0.4-1,0.6c-0.1,0.1-0.2,0.1-0.2,0
	c-0.5-0.7-1-1.4-1.7-1.9c-1.1-0.9-2.4-1.4-3.8-1.5c-2.8-0.2-5,0.7-6.8,2.9l-0.1,0.1c-0.2,0.3-0.2,0.3-0.6,0.1
	c-0.2-0.2-0.5-0.3-0.7-0.5c-0.1-0.1-0.1-0.1-0.1-0.2c0.4-0.6,0.9-1.1,1.4-1.6c0.1-0.1,0.1-0.1,0-0.3c-0.7-0.7-1.2-1.5-1.5-2.4
	c0-0.2-0.1-0.4,0-0.5c0-0.3,0.2-0.4,0.5-0.4s0.6,0.2,0.8,0.4c0.6,0.5,1.1,1.2,1.5,2c0.1,0.1,0.1,0.2,0.2,0.1
	c1.2-0.7,2.4-1.1,3.7-1.2c0.2,0,0.2-0.1,0.2-0.2c-0.2-0.9-0.2-1.8,0.1-2.7c0.1-0.2,0.2-0.4,0.3-0.6c0.2-0.3,0.5-0.3,0.8,0
	c0.2,0.3,0.3,0.7,0.4,1.1C24.9,14.8,24.9,15.2,24.9,15.5L24.9,15.5z M23.1,35.9c0-0.3,0-0.7,0.1-1c0-0.1,0-0.2-0.1-0.2
	c-1.4-0.1-2.6-0.5-3.8-1.2c-0.1-0.1-0.2,0-0.2,0.1c-0.3,0.7-0.8,1.3-1.4,1.8c-0.2,0.2-0.5,0.4-0.8,0.4c-0.3,0.1-0.5-0.1-0.5-0.4
	c0-0.3,0-0.6,0.1-0.9c0.3-0.7,0.7-1.4,1.3-1.9c0.1-0.1,0.1-0.2,0-0.3c-0.4-0.4-0.8-0.8-1.1-1.3c-0.1-0.1-0.1-0.2,0-0.2
	c0.3-0.2,0.6-0.4,0.9-0.6c0.1-0.1,0.2-0.1,0.2,0c0.7,0.9,1.5,1.6,2.5,2.2c1.5,0.8,3.1,1.1,4.8,0.8c2-0.3,3.7-1.3,4.9-3
	c0.1-0.1,0.1-0.1,0.2,0c0.3,0.2,0.6,0.4,0.9,0.6c0.1,0.1,0.1,0.1,0,0.2c-0.3,0.4-0.7,0.8-1,1.2c-0.1,0.1-0.1,0.1,0,0.2
	c0.7,0.7,1.3,1.5,1.6,2.5c0,0.2,0,0.3,0,0.5c0,0.3-0.2,0.4-0.5,0.4s-0.6-0.2-0.8-0.4c-0.7-0.5-1.1-1.2-1.5-2
	c-0.1-0.1-0.1-0.1-0.2-0.1c-1.2,0.7-2.4,1.2-3.8,1.4c-0.1,0-0.1,0.1-0.1,0.2c0.1,0.8,0.1,1.6-0.1,2.4c-0.1,0.3-0.2,0.5-0.4,0.8
	c-0.2,0.3-0.5,0.3-0.7,0c-0.3-0.4-0.4-0.8-0.5-1.3C23.1,36.5,23.2,36.2,23.1,35.9z M31,25c0.2,1.3,0.2,2.7,0.2,4
	c0,0.2,0,0.2-0.2,0.2c-0.4,0-0.8,0-1.2,0c-0.1,0-0.2,0-0.2-0.2c0-2.1,0-4.2,0-6.2c0-0.1,0-0.2,0.2-0.2c0.5,0,1,0,1.5,0
	c0.1,0,0.2,0.1,0.3,0.2c0.4,1.2,0.9,2.3,1.2,3.5v0.1c0.1-0.1,0.1-0.2,0.1-0.4c0.3-1.1,0.8-2.2,1.1-3.4c0-0.1,0.1-0.1,0.2-0.1
	c0.5,0,1,0,1.5,0c0.1,0,0.2,0,0.2,0.2c0,2.1,0,4.2,0,6.2c0,0.1,0,0.2-0.1,0.2c-0.4,0-0.8,0-1.3,0c-0.1,0-0.2,0-0.2-0.2
	c0-1.2,0-2.5,0.2-3.7c0-0.1,0-0.2,0-0.2s0,0,0-0.1c-0.1,0.2-0.1,0.4-0.2,0.5c-0.3,1-0.7,2-1.1,3c0,0.1-0.1,0.2-0.2,0.2
	c-0.2,0-0.4,0-0.6,0c-0.1,0-0.1,0-0.2-0.1c-0.4-1.1-0.9-2.3-1.2-3.4C31.1,25.1,31.1,25,31,25L31,25z M17.4,25.9c0,1,0,2.1,0,3.1
	c0,0.1,0,0.2-0.2,0.2c-0.5,0-0.9,0-1.4,0c-0.1,0-0.2,0-0.2-0.2c0-0.7,0-1.5,0-2.2c0-0.2,0-0.2-0.2-0.2c-0.5,0-1,0-1.6,0
	c-0.2,0-0.2,0.1-0.2,0.2c0,0.7,0,1.5,0,2.2c0,0.2,0,0.2-0.2,0.2c-0.5,0-0.9,0-1.4,0c-0.1,0-0.2,0-0.2-0.2c0-2.1,0-4.2,0-6.3
	c0-0.1,0-0.2,0.2-0.2c0.5,0,0.9,0,1.4,0c0.1,0,0.2,0,0.2,0.2c0,0.7,0,1.4,0,2c0,0.2,0,0.2,0.2,0.2c0.5,0,1,0,1.6,0
	c0.2,0,0.2-0.1,0.2-0.2c0-0.7,0-1.4,0-2.1c0-0.1,0-0.2,0.2-0.2c0.5,0,0.9,0,1.4,0c0.2,0,0.2,0.1,0.2,0.2
	C17.4,23.9,17.4,24.9,17.4,25.9z M18.8,25.9c0-1,0-2.1,0-3.1c0-0.1,0-0.2,0.2-0.2c1.3,0,2.6,0,3.8,0c0.1,0,0.2,0,0.2,0.2
	c0,0.4,0,0.7,0,1.1c0,0.1,0,0.2-0.2,0.2c-0.7,0-1.4,0-2.1,0c-0.2,0-0.2,0-0.2,0.2s0,0.4,0,0.6s0,0.2,0.2,0.2c0.6,0,1.2,0,1.7,0
	c0.2,0,0.2,0.1,0.2,0.2c0,0.4,0,0.7,0,1.1c0,0.1,0,0.2-0.2,0.2c-0.6,0-1.2,0-1.8,0c-0.1,0-0.2,0-0.2,0.2c0,0.3,0,0.5,0,0.8
	c0,0.1,0,0.2,0.2,0.2c0.7,0,1.5,0,2.2,0c0.2,0,0.2,0,0.2,0.2c0,0.4,0,0.7,0,1.1c0,0.1,0,0.2-0.2,0.2c-1.3,0-2.7,0-4,0
	c-0.1,0-0.2-0.1-0.2-0.2C18.8,28,18.8,27,18.8,25.9z M24.4,25.9c0-1,0-2.1,0-3.1c0-0.2,0-0.2,0.2-0.2c0.4,0,0.9,0,1.3,0
	c0.2,0,0.2,0.1,0.2,0.2c0,1.6,0,3.1,0,4.7c0,0.2,0,0.2,0.2,0.2c0.7,0,1.4,0,2.1,0c0.2,0,0.2,0,0.2,0.2c0,0.4,0,0.7,0,1.1
	c0,0.1,0,0.2-0.2,0.2c-1.3,0-2.6,0-3.9,0c-0.1,0-0.2,0-0.2-0.2C24.4,28,24.4,27,24.4,25.9L24.4,25.9z"/>
<g id="Calque_2_1_" class="st2">
	<g id="Layer_2" class="st3">
		<g id="Layer_1-2">
			<path class="st4" d="M32.9,18.5l-6.6-3.9c-0.8-0.5-1.8-0.5-2.6,0L17,18.5c-0.8,0.5-1.3,1.3-1.3,2.3v7.9c0,0.9,0.5,1.8,1.3,2.3
				l6.6,3.9c0.8,0.5,1.8,0.5,2.6,0l6.6-3.9c0.8-0.5,1.3-1.3,1.3-2.3v-7.9C34.2,19.8,33.7,19,32.9,18.5z"/>
			<path class="st0" d="M32.9,18.5l-6.6-3.9c-0.8-0.5-1.8-0.5-2.6,0L17,18.5c-0.8,0.5-1.3,1.3-1.3,2.3v7.9c0,0.9,0.5,1.8,1.3,2.3
				l6.6,3.9c0.8,0.5,1.8,0.5,2.6,0l6.6-3.9c0.8-0.5,1.3-1.3,1.3-2.3v-7.9C34.2,19.8,33.7,19,32.9,18.5z M23.9,34.5l-6.6-3.9
				c-0.7-0.4-1.1-1.1-1.1-1.9v-7.9c0-0.8,0.4-1.5,1.1-1.9l6.6-3.9c0.6-0.4,1.5-0.4,2.1,0l6.6,3.9c0.5,0.3,0.9,0.9,1,1.5
				c-0.2-0.5-0.7-0.6-1.3-0.3L26.1,24c-0.8,0.5-1.4,1-1.4,1.9v7.7c0,0.6,0.2,0.9,0.6,1c-0.1,0-0.2,0-0.3,0
				C24.6,34.8,24.2,34.7,23.9,34.5z"/>
			<path class="st5" d="M31.1,29.4l-1.7,1l-0.1,0.1V31c0,0.1,0,0.1,0.1,0l1.7-1l0.1-0.1L31.1,29.4C31.2,29.4,31.2,29.4,31.1,29.4
				L31.1,29.4z"/>
			<path class="st4" d="M27.6,25.8C27.7,25.8,27.7,25.8,27.6,25.8l0.1,0.7c0.2-0.1,0.4-0.1,0.6-0.1c0,0,0.1,0.1,0,0.1l0,0.5
				c0,0,0,0.1-0.1,0.1l0,0l0,0c-0.2,0-0.4,0-0.6,0.1c-0.3,0.1-0.4,0.4-0.5,0.7c0,0.3,0.1,0.3,0.6,0.3c0.6,0,0.9,0.3,0.9,0.9
				s-0.3,1.3-0.8,1.7v0.6c0,0.1,0,0.1-0.1,0.2l-0.3,0.2c-0.1,0-0.1,0-0.1-0.1v-0.6c-0.3,0.1-0.6,0.1-0.8,0.1c0,0-0.1-0.1,0-0.1
				l0.1-0.5c0,0,0-0.1,0.1-0.1l0,0c0,0,0,0,0.1,0c0.2,0.1,0.5,0,0.7-0.1c0.3-0.1,0.5-0.5,0.5-0.8s-0.2-0.4-0.5-0.4
				c-0.5,0-0.9-0.1-0.9-0.8c0-0.6,0.3-1.2,0.8-1.6v-0.6c0-0.1,0-0.1,0.1-0.2L27.6,25.8z"/>
		</g>
	</g>
</g>
</svg>
