<?xml version="1.0" encoding="utf-8"?>
<!-- Generator: Adobe Illustrator 22.0.1, SVG Export Plug-In . SVG Version: 6.00 Build 0)  -->
<svg version="1.1"
	 id="svg11899" inkscape:version="0.92.2 2405546, 2018-03-11" sodipodi:docname="deploy.svg" xmlns:cc="http://creativecommons.org/ns#" xmlns:dc="http://purl.org/dc/elements/1.1/" xmlns:inkscape="http://www.inkscape.org/namespaces/inkscape" xmlns:rdf="http://www.w3.org/1999/02/22-rdf-syntax-ns#" xmlns:sodipodi="http://sodipodi.sourceforge.net/DTD/sodipodi-0.dtd" xmlns:svg="http://www.w3.org/2000/svg"
	 xmlns="http://www.w3.org/2000/svg" xmlns:xlink="http://www.w3.org/1999/xlink" x="0px" y="0px" viewBox="0 0 48.9 47.7"
	 style="enable-background:new 0 0 48.9 47.7;" xml:space="preserve">
<style type="text/css">
	.st0{fill:#326CE5;}
	.st1{fill:#EEEEEE;}
	.st2{fill-opacity:0;}
</style>
<sodipodi:namedview  bordercolor="#666666" borderopacity="1.0" fit-margin-bottom="0" fit-margin-left="0" fit-margin-right="0" fit-margin-top="0" id="base" inkscape:current-layer="layer1" inkscape:cx="-34.913484" inkscape:cy="-27.913865" inkscape:document-units="mm" inkscape:pageopacity="0.0" inkscape:pageshadow="2" inkscape:window-height="1556" inkscape:window-maximized="1" inkscape:window-width="2560" inkscape:window-x="0" inkscape:window-y="0" inkscape:zoom="3.959798" pagecolor="#ffffff" showgrid="false">
	</sodipodi:namedview>
<path id="path868" inkscape:connector-curvature="0" class="st0" d="M0,30.7L4.8,9.5L24.5,0l19.6,9.5l4.8,21.2l-13.6,17H13.6L0,30.7
	z"/>
<path id="path1222" inkscape:connector-curvature="0" class="st1" d="M25.3,36.4L25.3,36.4c-6.9,0.3-12.8-5-13.2-11.9
	c-0.4-6.9,4.9-12.8,11.8-13.2c6.9-0.4,12.9,4.8,13.3,11.8l-5,0.3c-0.3-4.2-3.9-7.4-8-7.1c-4.2,0.2-7.4,3.8-7.2,8
	c0.2,4.2,3.8,7.4,8,7.2L25.3,36.4z"/>
<path id="path1224" inkscape:connector-curvature="0" class="st1" d="M28.1,23.1l4,9.7l9.1-9.7H28.1z"/>
<path id="path1226" inkscape:connector-curvature="0" class="st2" d="M3.2,35.5h42.5v12.2H3.2V35.5z"/>
</svg>
