<?xml version="1.0" encoding="utf-8"?>
<!-- Generator: Adobe Illustrator 22.0.1, SVG Export Plug-In . SVG Version: 6.00 Build 0)  -->
<svg version="1.1"
	 id="svg2070" inkscape:version="0.92.2 2405546, 2018-03-11" sodipodi:docname="ing.svg" xmlns:cc="http://creativecommons.org/ns#" xmlns:dc="http://purl.org/dc/elements/1.1/" xmlns:inkscape="http://www.inkscape.org/namespaces/inkscape" xmlns:rdf="http://www.w3.org/1999/02/22-rdf-syntax-ns#" xmlns:sodipodi="http://sodipodi.sourceforge.net/DTD/sodipodi-0.dtd" xmlns:svg="http://www.w3.org/2000/svg"
	 xmlns="http://www.w3.org/2000/svg" xmlns:xlink="http://www.w3.org/1999/xlink" x="0px" y="0px" viewBox="0 0 48.9 47.7"
	 style="enable-background:new 0 0 48.9 47.7;" xml:space="preserve">
<style type="text/css">
	.st0{fill:#326CE5;}
	.st1{fill-opacity:0;}
	.st2{fill:#EEEEEE;}
</style>
<sodipodi:namedview  bordercolor="#666666" borderopacity="1.0" fit-margin-bottom="0" fit-margin-left="0" fit-margin-right="0" fit-margin-top="0" id="base" inkscape:current-layer="layer1" inkscape:cx="-59.380361" inkscape:cy="-12.99893" inkscape:document-units="mm" inkscape:pageopacity="0.0" inkscape:pageshadow="2" inkscape:window-height="1556" inkscape:window-maximized="1" inkscape:window-width="2560" inkscape:window-x="0" inkscape:window-y="0" inkscape:zoom="5.6" pagecolor="#ffffff" showgrid="false">
	</sodipodi:namedview>
<path id="path872" inkscape:connector-curvature="0" class="st0" d="M0,30.7L4.8,9.5L24.5,0l19.6,9.5l4.8,21.2l-13.6,17H13.6L0,30.7
	z"/>
<path id="path1340" inkscape:connector-curvature="0" class="st1" d="M7.4,13.4c8.8,0,13.2,5.6,17.6,11.2
	c4.4,5.6,8.8,11.2,17.6,11.2"/>
<path id="path1350" inkscape:connector-curvature="0" class="st1" d="M8.5,35.9c8.4,0,12.5-5.6,16.7-11.1s8.4-11.1,16.7-11.1"/>
<path id="path1358" inkscape:connector-curvature="0" class="st1" d="M9.2,35.5h30.5v12.2H9.2V35.5z"/>
<path id="path7709" pointer-events="none" inkscape:connector-curvature="0" class="st2" d="M32.3,35.8h-6.4L11.9,18.3h-4v-5.7h6.6
	l14,17.4h3.9v-4.5l8.8,7.4l-8.8,7.4L32.3,35.8z M25.2,22.3l3.1-3.9h3.9v4.5l8.8-7.4l-8.8-7.4v4.5h-6.4l-4.1,5.2L25.2,22.3z M15,26.2
	l-3.2,4h-4v5.7h6.6l4.2-5.2L15,26.2z"/>
</svg>
