<?xml version="1.0" encoding="utf-8"?>
<!-- Generator: Adobe Illustrator 22.0.1, SVG Export Plug-In . SVG Version: 6.00 Build 0)  -->
<svg version="1.1"
	 id="svg3331" inkscape:version="0.92.2 2405546, 2018-03-11" sodipodi:docname="quota.svg" xmlns:cc="http://creativecommons.org/ns#" xmlns:dc="http://purl.org/dc/elements/1.1/" xmlns:inkscape="http://www.inkscape.org/namespaces/inkscape" xmlns:rdf="http://www.w3.org/1999/02/22-rdf-syntax-ns#" xmlns:sodipodi="http://sodipodi.sourceforge.net/DTD/sodipodi-0.dtd" xmlns:svg="http://www.w3.org/2000/svg"
	 xmlns="http://www.w3.org/2000/svg" xmlns:xlink="http://www.w3.org/1999/xlink" x="0px" y="0px" viewBox="0 0 48.9 47.7"
	 style="enable-background:new 0 0 48.9 47.7;" xml:space="preserve">
<style type="text/css">
	.st0{fill:#326CE5;}
	.st1{fill:#EEEEEE;}
</style>
<sodipodi:namedview  bordercolor="#666666" borderopacity="1.0" fit-margin-bottom="0" fit-margin-left="0" fit-margin-right="0" fit-margin-top="0" id="base" inkscape:current-layer="layer1" inkscape:cx="-56.612069" inkscape:cy="-7.979945" inkscape:document-units="mm" inkscape:pageopacity="0.0" inkscape:pageshadow="2" inkscape:window-height="1556" inkscape:window-maximized="1" inkscape:window-width="2560" inkscape:window-x="0" inkscape:window-y="0" inkscape:zoom="5.6" pagecolor="#ffffff" showgrid="false">
	</sodipodi:namedview>
<path id="path6853" inkscape:connector-curvature="0" class="st0" d="M0,30.7L4.8,9.5L24.5,0l19.6,9.5l4.8,21.2l-13.6,17H13.6
	L0,30.7z"/>
<path id="path6933" inkscape:connector-curvature="0" sodipodi:nodetypes="cccsscccccsccccccsscssccccssscscccccccscccccsccccccccccccccsccccccscccsccccccsccccccccccsccccccccccccccccccc" class="st1" d="
	M18.4,5.5c0,0-0.9,0.3-1.9,0.7c-1,0.4-1.9,0.7-2,0.8c0,0-0.1,0.1-0.1,0.1c0,0,0.2,0.6,0.5,1.2c0.3,0.7,0.5,1.2,0.5,1.3
	c0,0-0.2,0.1-0.7,0.3c-0.4,0.1-0.7,0.3-0.7,0.3c0,0,4.7,2.1,4.8,2.1c0,0,0.3-0.5,1.1-2.4c0.6-1.3,1.1-2.4,1.1-2.4c0,0,0,0,0,0
	C20.3,7.7,19.4,8,19.4,8c0,0-0.3-0.6-0.5-1.2C18.6,6,18.4,5.5,18.4,5.5L18.4,5.5z M24.5,11.8c-6.3,0-11.8,4-13.8,9.9
	c-0.7,2.2-0.9,4.6-0.5,6.9c0.5,3.2,2.2,6.2,4.7,8.4c0.1,0.1,0.3,0.2,0.3,0.2c0,0,0.7-0.7,1.5-1.5c0.8-0.8,1.5-1.5,1.5-1.6
	c0.1-0.2-0.1-0.7-0.5-1c-0.4-0.4-0.7-0.5-1-0.5c-0.1,0-0.4,0.3-0.8,0.7c-0.4,0.4-0.7,0.7-0.7,0.7c-0.1,0-0.4-0.4-0.8-1
	c-0.9-1.2-1.5-2.6-1.9-4.1c-0.1-0.5-0.3-1.4-0.3-1.5c0,0,0.3,0,1.1,0c1.1,0,1.2,0,1.3-0.2c0.1-0.2,0.2-0.4,0.2-0.8
	c0-0.4,0-0.7-0.2-0.9c-0.1-0.2-0.1-0.2-1.3-0.2c-0.6,0-1.1,0-1.1,0c0,0,0-0.1,0-0.5c0.2-1.9,0.9-3.9,2-5.4c0.2-0.4,0.7-0.9,0.7-0.9
	c0,0,0.4,0.4,0.9,0.9l0.9,0.9l0.2,0c0.5-0.1,1.1-0.6,1.3-1.2c0-0.1,0-0.2,0-0.3c0-0.1-0.2-0.3-0.9-1c-0.8-0.8-0.8-0.9-0.8-0.9
	c0.1-0.2,1-0.8,1.6-1.2c1.5-0.9,3.5-1.6,5-1.7l0.3,0l0,1.3l0,1.3l0.1,0.1c0.4,0.4,1.5,0.4,1.9,0l0.1-0.1l0-1.3l0-1.3l0.3,0
	c0.3,0,1.1,0.1,1.7,0.3c1.7,0.4,3.3,1.2,4.7,2.3c0.2,0.1,0.3,0.3,0.3,0.3c0,0-0.4,0.4-0.8,0.9l-0.8,0.8l0,0.2c0,0.6,0.8,1.3,1.3,1.3
	l0.2,0l0.8-0.8c0.5-0.5,0.9-0.8,0.9-0.8s0.2,0.2,0.3,0.4c1.1,1.5,1.9,3.4,2.3,5.2c0.1,0.6,0.2,1.3,0.1,1.3c0,0-0.2,0-1.1,0h-1.1
	l-0.1,0.1c-0.2,0.2-0.4,0.7-0.3,1.2c0,0.3,0.1,0.6,0.3,0.8l0.1,0.1l1.1,0c1.1,0,1.1,0,1.1,0.1c0,0.2-0.1,0.8-0.2,1.3
	c-0.3,1.5-1,3.1-1.9,4.4c-0.4,0.5-0.7,0.9-0.8,0.9c0,0-0.4-0.3-0.7-0.7c-0.8-0.8-0.8-0.8-1.1-0.7c-0.5,0.2-1.1,0.8-1.2,1.3l0,0.2
	l1.3,1.3c1.7,1.7,1.7,1.7,1.8,1.7c0.1-0.1,0.9-0.8,1.3-1.2c1-1.1,1.7-2.1,2.3-3.4c1.5-3.1,1.9-6.6,1.1-10c-0.7-2.8-2.3-5.4-4.5-7.3
	C31.4,13.1,28,11.8,24.5,11.8L24.5,11.8z M21.7,17.8c-0.6,0-1.2,0.3-1.4,0.7c-0.1,0.1-0.1,0.2,0,0.3c0,0.1,0.6,1.6,1.3,3.4l1.3,3.3
	l-0.1,0.2c-0.4,0.8-0.2,1.6,0.4,2.2c0.5,0.5,1.3,0.7,2,0.5c0.1,0,0.3-0.2,0.5-0.2c0.9-0.6,1.1-1.9,0.4-2.8c-0.2-0.3-0.5-0.4-1-0.6
	c-0.1,0-0.2-0.4-1.4-3.3c-0.7-1.8-1.3-3.3-1.3-3.4C22.2,17.8,22,17.8,21.7,17.8z"/>
</svg>
