<?xml version="1.0" encoding="utf-8"?>
<!-- Generator: Adobe Illustrator 22.0.1, SVG Export Plug-In . SVG Version: 6.00 Build 0)  -->
<svg version="1.1"
	 id="svg4583" inkscape:version="0.92.2 2405546, 2018-03-11" sodipodi:docname="netpol.svg" xmlns:cc="http://creativecommons.org/ns#" xmlns:dc="http://purl.org/dc/elements/1.1/" xmlns:inkscape="http://www.inkscape.org/namespaces/inkscape" xmlns:rdf="http://www.w3.org/1999/02/22-rdf-syntax-ns#" xmlns:sodipodi="http://sodipodi.sourceforge.net/DTD/sodipodi-0.dtd" xmlns:svg="http://www.w3.org/2000/svg"
	 xmlns="http://www.w3.org/2000/svg" xmlns:xlink="http://www.w3.org/1999/xlink" x="0px" y="0px" viewBox="0 0 48.9 47.7"
	 style="enable-background:new 0 0 48.9 47.7;" xml:space="preserve">
<style type="text/css">
	.st0{fill:#326CE5;}
	.st1{fill:#EEEEEE;}
</style>
<sodipodi:namedview  bordercolor="#666666" borderopacity="1.0" fit-margin-bottom="0" fit-margin-left="0" fit-margin-right="0" fit-margin-top="0" id="base" inkscape:current-layer="layer1" inkscape:cx="-9.2245623" inkscape:cy="19.716285" inkscape:document-units="mm" inkscape:pageopacity="0.0" inkscape:pageshadow="2" inkscape:window-height="1556" inkscape:window-maximized="1" inkscape:window-width="2560" inkscape:window-x="0" inkscape:window-y="0" inkscape:zoom="11.2" pagecolor="#ffffff" showgrid="false">
	</sodipodi:namedview>
<path id="path7499" inkscape:connector-curvature="0" class="st0" d="M0,30.7L4.8,9.5L24.5,0l19.6,9.5l4.8,21.2l-13.6,17H13.6
	L0,30.7z"/>
<path id="path7594" inkscape:connector-curvature="0" sodipodi:nodetypes="ssscscsscsccccccccccccccccsscsssssscssssccss" class="st1" d="
	M23,11.3c-6.6,0-11.9,5.3-11.9,11.9S16.4,35.1,23,35.1c1.5,0,2.9-0.3,4.2-0.8v-2.8c0-1,0.8-2.6,1.7-2.6v-2.6c0-1.3,1.9-3.5,4.3-3.5
	c0.6,0,1.1,0.1,1.6,0.3C34.9,16.6,29.5,11.3,23,11.3L23,11.3z M25.4,15.5l4.2,4.2h-3v4.8h-2.4v-4.8h-3L25.4,15.5z M19.4,22h2.4v4.8
	h3l-4.2,4.2l-4.2-4.2h3L19.4,22z M33.5,24.9c-1.7,0-3.1,1.4-3.1,3.1v1.8c-0.7,0-1.2,0.6-1.2,1.2V36c0,0.7,0.6,1.2,1.2,1.2h6.1
	c0.7,0,1.2-0.6,1.2-1.2v-4.9c0-0.7-0.6-1.2-1.2-1.2V28C36.6,26.3,35.2,24.9,33.5,24.9z M33.5,26.2c1,0,1.8,0.8,1.8,1.8v1.8h-3.7V28
	C31.7,27,32.5,26.2,33.5,26.2z"/>
</svg>
