<?xml version="1.0" encoding="utf-8"?>
<!-- Generator: Adobe Illustrator 22.0.1, SVG Export Plug-In . SVG Version: 6.00 Build 0)  -->
<svg version="1.1"
	 id="svg12529" inkscape:version="0.92.2 2405546, 2018-03-11" sodipodi:docname="sts.svg" xmlns:cc="http://creativecommons.org/ns#" xmlns:dc="http://purl.org/dc/elements/1.1/" xmlns:inkscape="http://www.inkscape.org/namespaces/inkscape" xmlns:rdf="http://www.w3.org/1999/02/22-rdf-syntax-ns#" xmlns:sodipodi="http://sodipodi.sourceforge.net/DTD/sodipodi-0.dtd" xmlns:svg="http://www.w3.org/2000/svg"
	 xmlns="http://www.w3.org/2000/svg" xmlns:xlink="http://www.w3.org/1999/xlink" x="0px" y="0px" viewBox="0 0 48.9 47.7"
	 style="enable-background:new 0 0 48.9 47.7;" xml:space="preserve">
<style type="text/css">
	.st0{fill:#326CE5;}
	.st1{fill-opacity:0;}
	
		.st2{fill:none;stroke:#EEEEEE;stroke-width:0.5291;stroke-linecap:square;stroke-linejoin:round;stroke-miterlimit:10;stroke-dasharray:1.5874,1.5874;stroke-dashoffset:3;}
	
		.st3{fill:#326CE5;stroke:#EEEEEE;stroke-width:0.5291;stroke-linecap:square;stroke-linejoin:round;stroke-miterlimit:10;stroke-dasharray:1.5874,1.5874;stroke-dashoffset:3;}
	.st4{fill:#EEEEEE;}
	.st5{fill:none;stroke:#EEEEEE;stroke-width:0.5292;stroke-linejoin:round;stroke-miterlimit:10;}
	.st6{fill:#F4F4F4;}
	.st7{fill:none;stroke:#326CE5;stroke-width:0.5292;stroke-linejoin:round;stroke-miterlimit:10;}
</style>
<sodipodi:namedview  bordercolor="#666666" borderopacity="1.0" fit-margin-bottom="0" fit-margin-left="0" fit-margin-right="0" fit-margin-top="0" id="base" inkscape:current-layer="layer1" inkscape:cx="-51.783267" inkscape:cy="-27.450274" inkscape:document-units="mm" inkscape:pageopacity="0.0" inkscape:pageshadow="2" inkscape:window-height="1556" inkscape:window-maximized="1" inkscape:window-width="2560" inkscape:window-x="0" inkscape:window-y="0" inkscape:zoom="5.6" pagecolor="#ffffff" showgrid="false">
	</sodipodi:namedview>
<path id="path988" inkscape:connector-curvature="0" class="st0" d="M0,30.7L4.8,9.5L24.5,0l19.6,9.5l4.8,21.2l-13.6,17H13.6L0,30.7
	z"/>
<path id="path990" inkscape:connector-curvature="0" class="st1" d="M9.2,35.5h30.5v12.2H9.2V35.5z"/>
<path id="path1234" inkscape:connector-curvature="0" class="st2" d="M20.3,14h18.5v13H20.3V14z"/>
<path id="path1238" inkscape:connector-curvature="0" class="st3" d="M15.9,18h18.5v13H15.9V18z"/>
<path id="path1240" inkscape:connector-curvature="0" class="st4" d="M11.6,22h18.5v13H11.6V22z"/>
<path id="path1242" inkscape:connector-curvature="0" class="st5" d="M11.6,22h18.5v13H11.6V22z"/>
<path id="path1244" inkscape:connector-curvature="0" class="st4" d="M13.1,25.7L13.1,25.7c0,1.2,3.5,2.2,7.7,2.2s7.7-1,7.7-2.2v6
	c0,1.2-3.5,2.2-7.7,2.2s-7.7-1-7.7-2.2L13.1,25.7z"/>
<path id="path1246" inkscape:connector-curvature="0" class="st6" d="M13.1,25.7L13.1,25.7c0-1.2,3.5-2.2,7.7-2.2s7.7,1,7.7,2.2l0,0
	c0,1.2-3.5,2.2-7.7,2.2S13.1,26.9,13.1,25.7z"/>
<path id="path1248" inkscape:connector-curvature="0" class="st1" d="M28.5,25.7L28.5,25.7c0,1.2-3.5,2.2-7.7,2.2s-7.7-1-7.7-2.2
	l0,0c0-1.2,3.5-2.2,7.7-2.2S28.5,24.4,28.5,25.7l0,6c0,1.2-3.5,2.2-7.7,2.2s-7.7-1-7.7-2.2v-6"/>
<path id="path1250" inkscape:connector-curvature="0" class="st7" d="M28.5,25.7L28.5,25.7c0,1.2-3.5,2.2-7.7,2.2s-7.7-1-7.7-2.2
	l0,0c0-1.2,3.5-2.2,7.7-2.2S28.5,24.4,28.5,25.7l0,6c0,1.2-3.5,2.2-7.7,2.2s-7.7-1-7.7-2.2v-6"/>
</svg>
