<?xml version="1.0" encoding="utf-8"?>
<!-- Generator: Adobe Illustrator 22.0.1, SVG Export Plug-In . SVG Version: 6.00 Build 0)  -->
<svg version="1.1"
	 id="svg13826" inkscape:version="0.92.2 2405546, 2018-03-11" sodipodi:docname="crd.svg" xmlns:cc="http://creativecommons.org/ns#" xmlns:dc="http://purl.org/dc/elements/1.1/" xmlns:inkscape="http://www.inkscape.org/namespaces/inkscape" xmlns:rdf="http://www.w3.org/1999/02/22-rdf-syntax-ns#" xmlns:sodipodi="http://sodipodi.sourceforge.net/DTD/sodipodi-0.dtd" xmlns:svg="http://www.w3.org/2000/svg"
	 xmlns="http://www.w3.org/2000/svg" xmlns:xlink="http://www.w3.org/1999/xlink" x="0px" y="0px" viewBox="0 0 48.9 47.7"
	 style="enable-background:new 0 0 48.9 47.7;" xml:space="preserve">
<style type="text/css">
	.st0{fill:#326CE5;}
	.st1{fill:#EEEEEE;}
</style>
<sodipodi:namedview  bordercolor="#666666" borderopacity="1.0" fit-margin-bottom="0" fit-margin-left="0" fit-margin-right="0" fit-margin-top="0" id="base" inkscape:current-layer="layer1" inkscape:cx="-26.405501" inkscape:cy="-14.998618" inkscape:document-units="mm" inkscape:pageopacity="0.0" inkscape:pageshadow="2" inkscape:window-height="1556" inkscape:window-maximized="1" inkscape:window-width="2560" inkscape:window-x="0" inkscape:window-y="0" inkscape:zoom="5.6" pagecolor="#ffffff" showgrid="false">
	</sodipodi:namedview>
<path id="path6553" inkscape:connector-curvature="0" class="st0" d="M0,30.7L4.8,9.5L24.5,0l19.6,9.5l4.8,21.2l-13.6,17H13.6
	L0,30.7z"/>
<path id="path7415" inkscape:connector-curvature="0" class="st1" d="M37.7,22.6h-2v-5.2c0-1.4-1.2-2.6-2.6-2.6h-5.2v-2
	c0-1.8-1.5-3.3-3.3-3.3s-3.3,1.5-3.3,3.3v2h-5.2c-1.4,0-2.6,1.2-2.6,2.6v5h2c2,0,3.5,1.6,3.5,3.5s-1.6,3.5-3.5,3.5h-2v5
	c0,1.4,1.2,2.6,2.6,2.6h5v-2c0-2,1.6-3.5,3.5-3.5s3.5,1.6,3.5,3.5v2h5c1.4,0,2.6-1.2,2.6-2.6v-5.2h2c1.8,0,3.3-1.5,3.3-3.3
	S39.5,22.6,37.7,22.6z"/>
</svg>
